<svg xmlns="http://www.w3.org/2000/svg" width="361" height="369" version="1.1"><path fill="#212122" d="M0 0 C119.13 0 238.26 0 361 0 C361 121.77 361 243.54 361 369 C241.87 369 122.74 369 0 369 C0 247.23 0 125.46 0 0 Z" transform="translate(0,0)"/><path fill="#A37C3E" d="M0 0 C7.82209342 4.76071026 12.54188992 11.20032122 15.60546875 19.74609375 C18.24654343 30.81256863 16.94836907 41.14271811 11.3203125 50.99609375 C6.35508406 58.29871385 -0.94146103 63.09155342 -9.4765625 65.26171875 C-22.15344888 67.36604795 -31.67451392 66.09258157 -42.39453125 58.74609375 C-48.3526726 53.62311068 -51.93256112 47.13200414 -54.39453125 39.74609375 C-55.16264639 27.24218656 -54.99177611 17.28907106 -47.01953125 7.05859375 C-34.39751672 -6.02917777 -16.00764383 -8.38246928 0 0 Z" transform="translate(330.39453125,208.25390625)"/><path fill="#ECE192" d="M0 0 C5.5275 -0.061875 11.055 -0.12375 16.75 -0.1875 C18.46799805 -0.21481201 20.18599609 -0.24212402 21.95605469 -0.27026367 C32.40346633 -0.36706082 43.96965866 -0.47151144 52.4765625 6.5 C60.48027748 14.38058091 63.10574283 22.35948452 63.375 33.5 C63.15588513 43.37012907 61.25336329 51.45410603 54.31640625 58.77734375 C43.61420399 68.96273946 32.32479009 68.51837938 18.375 68.25 C12.31125 68.1675 6.2475 68.085 0 68 C0 45.56 0 23.12 0 0 Z" transform="translate(146,205)"/><path fill="#CFB971" d="M0 0 C9.590625 -0.1546875 9.590625 -0.1546875 19.375 -0.3125 C21.37224121 -0.35802002 23.36948242 -0.40354004 25.42724609 -0.45043945 C35.56808964 -0.58597617 44.13949699 -0.56485823 51.91162109 6.81518555 C57.06604345 12.28254932 58.53535321 17.65567319 58.375 25.08203125 C57.64196684 30.78594556 55.37784991 35.81866662 51.109375 39.734375 C49.1875 41.125 49.1875 41.125 46 43 C47.27197862 46.44007259 48.74263149 49.33688047 50.8203125 52.35546875 C51.35527344 53.14244141 51.89023437 53.92941406 52.44140625 54.74023438 C52.99699219 55.54783203 53.55257812 56.35542969 54.125 57.1875 C55.23597017 58.80310994 56.34295861 60.42146756 57.4453125 62.04296875 C57.93531738 62.75477295 58.42532227 63.46657715 58.93017578 64.19995117 C60 66 60 66 60 68 C53.96048576 69.29418162 47.88050857 70.38600217 42 68 C35.87301002 62.41718348 31.46661621 54.4734623 28 47 C28 46.34 28 45.68 28 45 C24.04 45 20.08 45 16 45 C16 52.59 16 60.18 16 68 C10.72 68 5.44 68 0 68 C0 45.56 0 23.12 0 0 Z" transform="translate(214,205)"/><path fill="#CDB56E" d="M0 0 C13 0 13 0 16.625 3.125 C17.77430834 4.73289935 18.89590137 6.36072692 20 8 C21.26111592 9.63683427 22.5506469 11.24878596 23.84204102 12.86181641 C25.26517461 14.64400313 26.6677637 16.44073397 28.06640625 18.2421875 C30.07613886 20.8254507 32.10612643 23.39085545 34.15234375 25.9453125 C34.66055664 26.58259277 35.16876953 27.21987305 35.69238281 27.87646484 C36.67378067 29.106257 37.65870048 30.33324849 38.64746094 31.55712891 C42 35.77543355 42 35.77543355 42 38 C42.66 38 43.32 38 44 38 C44 25.46 44 12.92 44 0 C49.28 0 54.56 0 60 0 C60 22.44 60 44.88 60 68 C46 68 46 68 42.24609375 64.84375 C41.26384619 63.42666887 40.32883153 61.97595979 39.4375 60.5 C38.37954498 58.94180368 37.31825011 57.38587061 36.25390625 55.83203125 C35.72555176 55.0323291 35.19719727 54.23262695 34.65283203 53.40869141 C31.95717386 49.4802773 28.91979966 45.84758779 25.875 42.1875 C24.80862132 40.89036965 23.74343196 39.59226023 22.6796875 38.29296875 C22.23351074 37.7518042 21.78733398 37.21063965 21.32763672 36.65307617 C19.84162447 34.80280237 18.42387794 32.89850392 17 31 C16.67 43.21 16.34 55.42 16 68 C10.72 68 5.44 68 0 68 C0 45.56 0 23.12 0 0 Z" transform="translate(79,205)"/><path fill="#A37B3E" d="M0 0 C6.93 0 13.86 0 21 0 C25.49974832 10.12443372 25.49974832 10.12443372 27.16650391 14.62402344 C27.54014069 15.62826355 27.91377747 16.63250366 28.29873657 17.66717529 C28.68741913 18.7206012 29.07610168 19.7740271 29.4765625 20.859375 C30.09354507 22.52048309 30.09354507 22.52048309 30.72299194 24.21514893 C32.02637092 27.72576791 33.32583558 31.23781943 34.625 34.75 C35.93209255 38.27616608 37.23999436 41.80203035 38.5484314 45.32769775 C39.35962796 47.51431478 40.16990798 49.70127211 40.97915649 51.88861084 C41.53015518 53.37605804 41.53015518 53.37605804 42.09228516 54.89355469 C42.41331207 55.76131531 42.73433899 56.62907593 43.06509399 57.52313232 C43.71322133 59.24023078 44.40092981 60.94270705 45.11923218 62.63165283 C46 65 46 65 46 68 C40.72 68 35.44 68 30 68 C28.35 64.04 26.7 60.08 25 56 C15.43 56 5.86 56 -4 56 C-5.32 59.96 -6.64 63.92 -8 68 C-13.61 68 -19.22 68 -25 68 C-23.19187423 61.47065694 -20.95963067 55.2744846 -18.3972168 49.00341797 C-16.52832313 44.39790971 -14.81532844 39.75824543 -13.1875 35.0625 C-10.62752348 27.68857856 -7.92888252 20.37086412 -5.1875 13.0625 C-4.79006592 12.0010376 -4.39263184 10.9395752 -3.9831543 9.84594727 C-1.13003204 2.26006408 -1.13003204 2.26006408 0 0 Z" transform="translate(31,205)"/><path fill="#C0A561" d="M0 0 C112.53 0 225.06 0 341 0 C341 2.31 341 4.62 341 7 C228.14 7 115.28 7 -1 7 C-0.67 4.69 -0.34 2.38 0 0 Z" transform="translate(7,358)"/><path fill="#252524" d="M0 0 C4.76070413 2.95163656 8.33689107 6.5731732 10.125 11.9375 C10.78735564 19.38426989 11.28660315 26.20214866 6.625 32.38671875 C1.85766806 37.31544474 -2.86233965 39.08944729 -9.5625 39.3125 C-15.54654949 39.24737733 -19.53318258 38.13284647 -23.875 33.9375 C-28.77409618 27.41013279 -29.65569358 20.87455137 -28.875 12.9375 C-26.98052939 6.71869432 -23.61684719 3.19565179 -18.08203125 -0.14453125 C-12.77675387 -2.35115105 -5.37941476 -1.94958656 0 0 Z" transform="translate(320.875,220.0625)"/><path fill="#90672F" d="M0 0 C3.34125 -0.061875 6.6825 -0.12375 10.125 -0.1875 C11.68758545 -0.22846802 11.68758545 -0.22846802 13.28173828 -0.27026367 C19.56544836 -0.32646535 24.09496243 0.2886316 28.875 4.75 C30.52016849 8.04033698 30.44565624 10.37108493 30 14 C28 16.9375 28 16.9375 26 19 C26.804375 19.680625 27.60875 20.36125 28.4375 21.0625 C31.5115335 24.58639206 32.08158318 26.34975862 32 31 C29.94379706 35.03625022 28.22824733 37.3833172 24 39 C21.34277344 39.22705078 21.34277344 39.22705078 18.359375 39.1953125 C17.39483398 39.19031738 16.43029297 39.18532227 15.43652344 39.18017578 C14.2199707 39.16196777 13.00341797 39.14375977 11.75 39.125 C5.93375 39.063125 5.93375 39.063125 0 39 C0 26.13 0 13.26 0 0 Z" transform="translate(40,290)"/><path fill="#1E1E1E" d="M0 0 C3.17625 -0.0825 6.3525 -0.165 9.625 -0.25 C10.6145166 -0.28641602 11.6040332 -0.32283203 12.62353516 -0.36035156 C18.2740706 -0.43116887 21.56767475 0.14907544 26 4 C30.23343326 8.24327845 31.36391802 12.59047413 31.5625 18.5 C31.26161887 25.71278922 29.68333578 30.50833106 24.375 35.4375 C21.05225089 37.62351915 19.36805218 38.12258261 15.4296875 38.09765625 C14.62257324 38.09515869 13.81545898 38.09266113 12.98388672 38.09008789 C11.9579541 38.08098389 10.93202148 38.07187988 9.875 38.0625 C4.986875 38.0315625 4.986875 38.0315625 0 38 C0 25.46 0 12.92 0 0 Z" transform="translate(162,220)"/><path fill="#B19354" d="M0 0 C8.03637891 8.36962588 14.17797849 20.62843714 15.0078125 32.3125 C14.98460937 33.055 14.96140625 33.7975 14.9375 34.5625 C14.91945313 35.325625 14.90140625 36.08875 14.8828125 36.875 C14.85960937 37.431875 14.83640625 37.98875 14.8125 38.5625 C14.1525 38.5625 13.4925 38.5625 12.8125 38.5625 C12.58175781 37.45132813 12.35101563 36.34015625 12.11328125 35.1953125 C10.29501919 26.76510217 8.47996795 18.93841413 3.8125 11.5625 C3.34457031 10.80839844 2.87664062 10.05429687 2.39453125 9.27734375 C-5.49133667 -2.0744118 -17.54451493 -8.01044023 -30.72265625 -11.015625 C-44.0922064 -13.30391568 -58.07803 -10.08362619 -69.1875 -2.4375 C-81.34713822 6.73587413 -87.99528446 18.18948687 -90.6484375 33.1640625 C-90.88287989 34.95722999 -91.04609674 36.75960844 -91.1875 38.5625 C-92.1775 38.5625 -93.1675 38.5625 -94.1875 38.5625 C-93.28298439 22.43717005 -88.55971754 8.59794077 -76.37109375 -2.6640625 C-52.86382122 -21.75583661 -22.35230412 -20.27381242 0 0 Z" transform="translate(216.1875,51.4375)"/><path fill="#CFC07A" d="M0 0 C3.4331459 2.00318208 6.21130844 4.42261689 8 8 C8 10.64 8 13.28 8 16 C0.41 16 -7.18 16 -15 16 C-12.98848737 22.77489892 -12.98848737 22.77489892 -10 24 C-5.27277258 24.56652431 -1.99299648 24.64848749 2.0625 22 C2.701875 21.34 3.34125 20.68 4 20 C5.32 20.66 6.64 21.32 8 22 C0.90458798 29.28717991 0.90458798 29.28717991 -4.8125 29.375 C-9.62666344 29.27675177 -12.31114704 28.23899284 -16 25 C-19.51906819 20.99554309 -20.34799319 17.40554931 -20.2890625 12.0625 C-19.66314845 7.59651867 -16.40742738 3.81483131 -13 1 C-8.62426098 -0.45857967 -4.56269847 -0.75239657 0 0 Z" transform="translate(216,301)"/><path fill="#715E3B" d="M0 0 C13.2 0 26.4 0 40 0 C40 8 40 8 39 11 C26.13 11 13.26 11 0 11 C0 7.37 0 3.74 0 0 Z" transform="translate(205,110)"/><path fill="#956E36" d="M0 0 C2.475 0.495 2.475 0.495 5 1 C6.98 7.27 8.96 13.54 11 20 C13.72978855 13.41085523 16.07169989 6.86591706 18 0 C20.475 0.495 20.475 0.495 23 1 C24.98 6.94 26.96 12.88 29 19 C31.26546852 15.60179721 32.38901628 12.16057722 33.625 8.3125 C33.85445313 7.61060547 34.08390625 6.90871094 34.3203125 6.18554688 C34.88429209 4.45835938 35.44269339 2.72935218 36 1 C37.65 0.67 39.3 0.34 41 0 C39.6893114 6.331829 38.01923958 12.38140777 35.9375 18.5 C35.5343457 19.71429688 35.5343457 19.71429688 35.12304688 20.953125 C33.13384956 26.86615044 33.13384956 26.86615044 32 28 C30.35 28 28.7 28 27 28 C25.02 21.73 23.04 15.46 21 9 C20.67 9 20.34 9 20 9 C19.73445313 9.86882812 19.46890625 10.73765625 19.1953125 11.6328125 C18.66550781 13.36144531 18.66550781 13.36144531 18.125 15.125 C17.77695312 16.26195312 17.42890625 17.39890625 17.0703125 18.5703125 C16.08503467 21.72751664 15.05727464 24.86627606 14 28 C12.35 28 10.7 28 9 28 C7.86498523 25.02455559 6.74390804 22.04403472 5.625 19.0625 C5.14933594 17.81629883 5.14933594 17.81629883 4.6640625 16.54492188 C2.62122077 11.07606432 1.1440544 5.72605004 0 0 Z" transform="translate(272,301)"/><path fill="#292825" d="M0 0 C3.2296738 -0.08111739 6.45730014 -0.14055592 9.6875 -0.1875 C11.05551758 -0.22520508 11.05551758 -0.22520508 12.45117188 -0.26367188 C21.00895523 -0.35702951 21.00895523 -0.35702951 25 3 C26.60243984 6.20487969 26.63159396 9.53309837 26 13 C23.41315651 15.65491832 20.83127735 17.89453258 17.02880859 18.11352539 C16.24328613 18.10828857 15.45776367 18.10305176 14.6484375 18.09765625 C13.79765625 18.09443359 12.946875 18.09121094 12.0703125 18.08789062 C11.18085938 18.07951172 10.29140625 18.07113281 9.375 18.0625 C8.4778125 18.05798828 7.580625 18.05347656 6.65625 18.04882812 C4.43747169 18.03702611 2.21872757 18.01909039 0 18 C0 12.06 0 6.12 0 0 Z" transform="translate(230,219)"/><path fill="#F4EA99" d="M0 0 C12.87 0 25.74 0 39 0 C39 3.63 39 7.26 39 11 C26.13 11 13.26 11 0 11 C0 7.37 0 3.74 0 0 Z" transform="translate(109,110)"/><path fill="#887042" d="M0 0 C5.39346988 -0.02464849 10.78690725 -0.04283531 16.18041992 -0.05493164 C18.01668875 -0.05997231 19.85295354 -0.06680477 21.68920898 -0.07543945 C24.32276401 -0.08751672 26.95626616 -0.09323081 29.58984375 -0.09765625 C30.41588608 -0.10281754 31.24192841 -0.10797882 32.09300232 -0.11329651 C34.06236368 -0.11349205 36.03161614 -0.06204152 38 0 C40.63523138 2.63523138 39.62917153 7.29171534 40 11 C27.79 11 15.58 11 3 11 C2.01 7.37 1.02 3.74 0 0 Z" transform="translate(110,124)"/><path fill="#7B6F4A" d="M0 0 C12.54 0 25.08 0 38 0 C37 8 37 8 35 11 C32.23371085 11.2667616 29.69380369 11.34804189 26.9296875 11.29296875 C26.13345978 11.28872391 25.33723206 11.28447906 24.51687622 11.28010559 C21.96924271 11.26328834 19.42239511 11.22563179 16.875 11.1875 C15.14975099 11.17245705 13.42448961 11.15876796 11.69921875 11.14648438 C7.46584218 11.11337501 3.23305441 11.06157285 -1 11 C-0.67 7.37 -0.34 3.74 0 0 Z" transform="translate(205,124)"/><path fill="#B99E5C" d="M0 0 C9.84205726 5.97496874 15.84345851 14.32348152 18.58984375 25.45703125 C19.00299437 28.01856508 19.07904295 30.41018113 19 33 C18.01 33 17.02 33 16 33 C15.90203125 32.3709375 15.8040625 31.741875 15.703125 31.09375 C13.8752372 20.6306681 9.72321955 11.77638799 0.828125 5.45703125 C-7.34372156 0.65254905 -15.82398124 -1.40191837 -25.18359375 0.72265625 C-31.63508215 2.53141633 -36.19987186 4.32960505 -41 9 C-41.66 9 -42.32 9 -43 9 C-43.26683594 9.54269531 -43.53367188 10.08539063 -43.80859375 10.64453125 C-44.66823398 12.34408226 -45.56047077 14.02728196 -46.47265625 15.69921875 C-49.81124878 21.97446024 -51.76260045 26.87801363 -52 34 C-53.32 34 -54.64 34 -56 34 C-56.8263816 25.40563136 -54.02898672 18.17144786 -48.98046875 11.21875 C-36.36914895 -3.44660262 -17.85408281 -9.56570097 0 0 Z" transform="translate(195,57)"/><path fill="#887042" d="M0 0 C11.55 0 23.1 0 35 0 C32.37806177 7.8658147 32.37806177 7.8658147 29 11 C25.70019531 11.56762695 25.70019531 11.56762695 21.828125 11.48828125 C21.1457074 11.48120651 20.46328979 11.47413177 19.76019287 11.46684265 C17.58899439 11.43894021 15.42041332 11.37622253 13.25 11.3125 C11.77477694 11.28741117 10.29951329 11.264599 8.82421875 11.24414062 C5.21530096 11.18913137 1.60790609 11.10289307 -2 11 C-1.49547781 7.25212088 -0.91840767 3.67363066 0 0 Z" transform="translate(203,138)"/><path fill="#EFE393" d="M0 0 C11.22 0 22.44 0 34 0 C37 9 37 9 37 11 C32.53450817 11.19834763 28.07136975 11.3431785 23.6027832 11.43945312 C22.08442521 11.47959307 20.56637478 11.5341233 19.04907227 11.60351562 C6.45386512 12.1649539 6.45386512 12.1649539 2.86474609 9.2890625 C0.7767587 6.07201526 0 3.84683608 0 0 Z" transform="translate(116,138)"/><path fill="#C4AB66" d="M0 0 C1.32 0 2.64 0 4 0 C4.33 8.58 4.66 17.16 5 26 C6.794375 24.22625 8.58875 22.4525 10.4375 20.625 C11.00267334 20.06893066 11.56784668 19.51286133 12.15014648 18.93994141 C14.92240553 16.23374024 14.92240553 16.23374024 17 13 C18.98 13 20.96 13 23 13 C22.08552154 14.08518111 21.16829593 15.16804738 20.25 16.25 C19.70730469 16.89066406 19.16460937 17.53132813 18.60546875 18.19140625 C17 20 17 20 14.5625 22.1875 C12.79205014 23.81987826 12.79205014 23.81987826 13.0859375 25.7265625 C14.42561019 29.05856892 16.72255988 31.51926016 19.0625 34.1875 C24 39.89290587 24 39.89290587 24 41 C21.83203125 41.34375 21.83203125 41.34375 19 41 C16.99732605 39.19905525 15.38647395 37.54883673 13.6875 35.5 C13.23310547 34.97535156 12.77871094 34.45070313 12.31054688 33.91015625 C11.1942988 32.61765847 10.09539378 31.31021858 9 30 C5.92249827 31.90027295 5.92249827 31.90027295 4.390625 35.04296875 C4.34421875 35.75066406 4.2978125 36.45835937 4.25 37.1875 C4.1675 38.445625 4.085 39.70375 4 41 C2.68 41 1.36 41 0 41 C0 27.47 0 13.94 0 0 Z" transform="translate(231,288)"/><path fill="#AC8D4E" d="M0 0 C1.65 0 3.3 0 5 0 C8.3 7.26 11.6 14.52 15 22 C17.75829376 15.14245878 17.75829376 15.14245878 20.47338867 8.26782227 C20.8263501 7.41760498 21.17931152 6.5673877 21.54296875 5.69140625 C21.89383545 4.81685791 22.24470215 3.94230957 22.60620117 3.04125977 C24 1 24 1 26.65356445 0.20678711 C27.42788818 0.13854736 28.20221191 0.07030762 29 0 C28.31295792 4.73611845 26.51974498 8.79526259 24.62109375 13.14453125 C24.28956802 13.91431808 23.9580423 14.68410492 23.61647034 15.47721863 C22.56134757 17.9243 21.49953103 20.36841004 20.4375 22.8125 C19.71895676 24.47571959 19.00085284 26.13912905 18.28320312 27.80273438 C16.52721689 31.8707066 14.76522348 35.93602809 13 40 C11.35 40 9.7 40 8 40 C8.20496094 39.39671875 8.40992187 38.7934375 8.62109375 38.171875 C8.89050781 37.37265625 9.15992187 36.5734375 9.4375 35.75 C9.70433594 34.96109375 9.97117187 34.1721875 10.24609375 33.359375 C10.61927734 32.19148438 10.61927734 32.19148438 11 31 C11.34901367 30.12396118 11.34901367 30.12396118 11.70507812 29.23022461 C12.14200133 25.92617371 10.89911458 23.93913231 9.47265625 20.95703125 C8.92802734 19.80138672 8.38339844 18.64574219 7.82226562 17.45507812 C7.23611001 16.24067636 6.64951605 15.02648608 6.0625 13.8125 C4.92494432 11.42479996 3.79294968 9.03449802 2.66015625 6.64453125 C2.15105713 5.58596924 1.64195801 4.52740723 1.11743164 3.43676758 C0 1 0 1 0 0 Z" transform="translate(75,301)"/><path fill="#141413" d="M0 0 C2.91765891 -0.10806144 5.83131125 -0.18732877 8.75 -0.25 C9.9875 -0.30027344 9.9875 -0.30027344 11.25 -0.3515625 C17.37263845 -0.45031473 17.37263845 -0.45031473 20.546875 1.828125 C22.53179475 4.79483301 22.5833135 6.50011898 22 10 C20.546875 12.171875 20.546875 12.171875 18 14 C14.9019373 14.48932579 11.87645042 14.37701205 8.75 14.25 C7.90953125 14.23195313 7.0690625 14.21390625 6.203125 14.1953125 C4.13492605 14.14830798 2.06731559 14.07656724 0 14 C0 9.38 0 4.76 0 0 Z" transform="translate(45,311)"/><path fill="#EADD8E" d="M0 0 C9.57 0 19.14 0 29 0 C32 8 32 8 32 11 C11.68202737 12.55943506 11.68202737 12.55943506 6.3125 9.06640625 C3.85483056 6.83378503 1.81526993 4.77806503 0 2 C0 1.34 0 0.68 0 0 Z" transform="translate(125,152)"/><path fill="#9A824D" d="M0 0 C1.20970459 0.00523682 2.41940918 0.01047363 3.66577148 0.01586914 C4.97094727 0.0190918 6.27612305 0.02231445 7.62084961 0.02563477 C9.00952213 0.03399138 10.39819401 0.04245634 11.78686523 0.05102539 C13.17944179 0.05603873 14.57202005 0.06060193 15.96459961 0.06469727 C19.38456394 0.07653105 22.80444367 0.09301659 26.22436523 0.11352539 C26.22436523 0.77352539 26.22436523 1.43352539 26.22436523 2.11352539 C24.54467773 3.76977539 24.54467773 3.76977539 22.34936523 5.61352539 C20.23401019 7.40285797 18.18417399 9.15371663 16.22436523 11.11352539 C13.88598633 11.34057617 13.88598633 11.34057617 10.99780273 11.30883789 C9.45092773 11.29916992 9.45092773 11.29916992 7.87280273 11.28930664 C6.79256836 11.27254883 5.71233398 11.25579102 4.59936523 11.23852539 C3.51139648 11.22950195 2.42342773 11.22047852 1.30249023 11.21118164 C-1.39043628 11.18755948 -4.08292732 11.15462095 -6.77563477 11.11352539 C-6.30037596 9.46655935 -5.82031586 7.82097811 -5.33813477 6.17602539 C-5.07129883 5.25950195 -4.80446289 4.34297852 -4.52954102 3.39868164 C-3.45488587 0.14130723 -3.45488587 0.14130723 0 0 Z" transform="translate(202.775634765625,151.886474609375)"/><path fill="#161514" d="M0 0 C2.56428515 -0.13559675 5.12135216 -0.23433188 7.6875 -0.3125 C8.40873047 -0.35439453 9.12996094 -0.39628906 9.87304688 -0.43945312 C14.08654187 -0.53565164 15.5623227 -0.34142226 19.01953125 2.35546875 C21 5 21 5 21 7.625 C19.93876257 10.14543889 19.10667198 11.29059487 17 13 C15.09887695 13.34057617 15.09887695 13.34057617 12.98828125 13.29296875 C12.23095703 13.28330078 11.47363281 13.27363281 10.69335938 13.26367188 C9.51483398 13.2259668 9.51483398 13.2259668 8.3125 13.1875 C7.11657227 13.16719727 7.11657227 13.16719727 5.89648438 13.14648438 C3.93070033 13.11117089 1.96526418 13.05736447 0 13 C0 8.71 0 4.42 0 0 Z" transform="translate(45,294)"/><path fill="#ECE090" d="M0 0 C0.84433594 0.00322266 1.68867188 0.00644531 2.55859375 0.00976562 C3.86763672 0.02233398 3.86763672 0.02233398 5.203125 0.03515625 C6.09128906 0.03966797 6.97945312 0.04417969 7.89453125 0.04882812 C10.08075816 0.06058203 12.26695028 0.07851659 14.453125 0.09765625 C14.453125 3.72765625 14.453125 7.35765625 14.453125 11.09765625 C6.863125 11.09765625 -0.726875 11.09765625 -8.546875 11.09765625 C-8.546875 7.79765625 -8.546875 4.49765625 -8.546875 1.09765625 C-5.33700084 0.29518771 -3.21053978 -0.02169284 0 0 Z" transform="translate(187.546875,109.90234375)"/><path fill="#C2A55F" d="M0 0 C0.84433594 0.00322266 1.68867188 0.00644531 2.55859375 0.00976562 C3.86763672 0.02233398 3.86763672 0.02233398 5.203125 0.03515625 C6.09128906 0.03966797 6.97945312 0.04417969 7.89453125 0.04882812 C10.08075816 0.06058203 12.26695028 0.07851659 14.453125 0.09765625 C14.453125 3.72765625 14.453125 7.35765625 14.453125 11.09765625 C6.863125 11.09765625 -0.726875 11.09765625 -8.546875 11.09765625 C-8.546875 7.79765625 -8.546875 4.49765625 -8.546875 1.09765625 C-5.33700084 0.29518771 -3.21053978 -0.02169284 0 0 Z" transform="translate(160.546875,109.90234375)"/><path fill="#E6DD91" d="M0 0 C1.65 0 3.3 0 5 0 C7.97 6.93 10.94 13.86 14 21 C16.11921697 18.88078303 16.81184978 17.39068602 17.9453125 14.6484375 C18.29980469 13.79765625 18.65429688 12.946875 19.01953125 12.0703125 C19.38433594 11.18085938 19.74914062 10.29140625 20.125 9.375 C20.68380859 8.02921875 20.68380859 8.02921875 21.25390625 6.65625 C22.17370799 4.43929196 23.08886662 2.22053146 24 0 C25.65 0 27.3 0 29 0 C27.22237529 5.77970875 24.82711563 11.26693071 22.4375 16.8125 C22.02564453 17.77865234 21.61378906 18.74480469 21.18945312 19.74023438 C20.79564453 20.65740234 20.40183594 21.57457031 19.99609375 22.51953125 C19.45746704 23.77407104 19.45746704 23.77407104 18.90795898 25.05395508 C18 27 18 27 17 28 C15.33382885 28.04063832 13.66611905 28.042721 12 28 C8.83512204 21.93276852 5.94663526 15.75995084 3.1875 9.5 C2.71654907 8.44039063 2.71654907 8.44039063 2.23608398 7.359375 C0 2.24124099 0 2.24124099 0 0 Z" transform="translate(164,301)"/><path fill="#EDE192" d="M0 0 C7.59 0 15.18 0 23 0 C23 3.63 23 7.26 23 11 C15.74 11 8.48 11 1 11 C0.67 7.37 0.34 3.74 0 0 Z" transform="translate(152,124)"/><path fill="#1E1C18" d="M0 0 C2.80190757 1.40095379 2.89676973 2.92135635 3.9453125 5.83984375 C4.29980469 6.82017578 4.65429688 7.80050781 5.01953125 8.81054688 C5.38433594 9.84244141 5.74914063 10.87433594 6.125 11.9375 C6.49753906 12.96552734 6.87007812 13.99355469 7.25390625 15.05273438 C10 22.71262592 10 22.71262592 10 25 C4.06 25 -1.88 25 -8 25 C-7.32099038 20.92594228 -6.77170341 17.97579451 -5.37109375 14.2578125 C-5.05849609 13.41992188 -4.74589844 12.58203125 -4.42382812 11.71875 C-4.09833984 10.8628125 -3.77285156 10.006875 -3.4375 9.125 C-3.10814453 8.24585938 -2.77878906 7.36671875 -2.43945312 6.4609375 C-1.63113386 4.30541947 -0.81787706 2.15190559 0 0 Z" transform="translate(41,221)"/><path fill="#CEBC75" d="M0 0 C1.32 0 2.64 0 4 0 C5.5091441 3.26669046 7.00571701 6.53898816 8.5 9.8125 C8.92925781 10.74126953 9.35851562 11.67003906 9.80078125 12.62695312 C10.20683594 13.51962891 10.61289063 14.41230469 11.03125 15.33203125 C11.40830078 16.15421143 11.78535156 16.9763916 12.17382812 17.82348633 C13 20 13 20 13 23 C13.66 23 14.32 23 15 23 C15.09796875 22.18144531 15.1959375 21.36289062 15.296875 20.51953125 C16.13873094 16.30557458 17.5657767 12.62571575 19.25 8.6875 C19.53746094 7.95982422 19.82492188 7.23214844 20.12109375 6.48242188 C21.015625 4.38671875 21.015625 4.38671875 23 1 C25.734375 0.01953125 25.734375 0.01953125 28 0 C25.94661139 6.51470776 23.50465317 12.78730029 20.8125 19.0625 C20.44447266 19.92810547 20.07644531 20.79371094 19.69726562 21.68554688 C18.80127408 23.79170883 17.90215345 25.89647192 17 28 C15.02 28 13.04 28 11 28 C9.157695 23.89980233 7.32770545 19.79422392 5.5 15.6875 C4.97535156 14.52025391 4.45070313 13.35300781 3.91015625 12.15039062 C3.41386719 11.03212891 2.91757813 9.91386719 2.40625 8.76171875 C1.94541016 7.73006592 1.48457031 6.69841309 1.00976562 5.63549805 C0 3 0 3 0 0 Z" transform="translate(121,301)"/><path fill="#A2844B" d="M0 0 C1.19882813 0.00483398 1.19882813 0.00483398 2.421875 0.00976562 C3.246875 0.01814453 4.071875 0.02652344 4.921875 0.03515625 C5.76234375 0.03966797 6.6028125 0.04417969 7.46875 0.04882812 C9.53648901 0.06057664 11.60419124 0.07851103 13.671875 0.09765625 C13.796875 7.72265625 13.796875 7.72265625 12.671875 11.09765625 C5.741875 11.09765625 -1.188125 11.09765625 -8.328125 11.09765625 C-8.328125 7.79765625 -8.328125 4.49765625 -8.328125 1.09765625 C-5.18121725 0.31092931 -3.1343629 -0.02238831 0 0 Z" transform="translate(187.328125,123.90234375)"/><path fill="#876838" d="M0 0 C6.93 0 13.86 0 21 0 C21 3.63 21 7.26 21 11 C14.73 11 8.46 11 2 11 C1.34 7.37 0.68 3.74 0 0 Z" transform="translate(154,138)"/><path fill="#DBC87D" d="M0 0 C0.74507812 0.00451172 1.49015625 0.00902344 2.2578125 0.01367188 C4.0885764 0.02540754 5.91929873 0.0433415 7.75 0.0625 C7.60892253 1.52130109 7.46197585 2.97953551 7.3125 4.4375 C7.23128906 5.24960938 7.15007812 6.06171875 7.06640625 6.8984375 C6.75 9.0625 6.75 9.0625 5.75 11.0625 C-0.19 11.0625 -6.13 11.0625 -12.25 11.0625 C-12.25 7.7625 -12.25 4.4625 -12.25 1.0625 C-8.06269376 0.01567344 -4.27143069 -0.04905353 0 0 Z" transform="translate(191.25,137.9375)"/><path fill="#C0A765" d="M0 0 C4.11531387 2.96685419 7.93148172 6.11107871 9.28515625 11.171875 C9.5625 13.375 9.5625 13.375 9.6875 16.9375 C8.3675 16.9375 7.0475 16.9375 5.6875 16.9375 C5.52894531 16.33421875 5.37039062 15.7309375 5.20703125 15.109375 C3.69557477 9.93201027 2.51644656 6.83486793 -2.3125 3.9375 C-7.35312497 2.25729168 -11.04237129 2.44236508 -16 4.375 C-20.32173523 7.05175042 -21.71666323 11.29867013 -23.3125 15.9375 C-24.3025 15.9375 -25.2925 15.9375 -26.3125 15.9375 C-25.8770996 10.49499496 -24.85603898 7.13379616 -21.3125 2.9375 C-14.81410889 -2.10206861 -7.78238479 -2.49623663 0 0 Z" transform="translate(185.3125,74.0625)"/><path fill="#866A3B" d="M0 0 C12.87 0 25.74 0 39 0 C39 3.63 39 7.26 39 11 C36.69 11 34.38 11 32 11 C32 7.7 32 4.4 32 1 C23.75 1 15.5 1 7 1 C7 4.3 7 7.6 7 11 C4.69 11 2.38 11 0 11 C0 7.37 0 3.74 0 0 Z" transform="translate(109,110)"/><path fill="#BFA968" d="M0 0 C5.61 0 11.22 0 17 0 C17 3.63 17 7.26 17 11 C12.38 11 7.76 11 3 11 C0 3.375 0 3.375 0 0 Z" transform="translate(158,152)"/><path fill="#F4EA99" d="M0 0 C5.61 0 11.22 0 17 0 C17 3.3 17 6.6 17 10 C11.39 10 5.78 10 0 10 C0 6.7 0 3.4 0 0 Z" transform="translate(216,125)"/><path fill="#E5D587" d="M0 0 C1.75570312 0.01353516 1.75570312 0.01353516 3.546875 0.02734375 C4.43890625 0.03894531 5.3309375 0.05054688 6.25 0.0625 C5.52758802 4.17954694 4.22646289 7.36737372 2.25 11.0625 C-2.04 11.0625 -6.33 11.0625 -10.75 11.0625 C-10.75 7.7625 -10.75 4.4625 -10.75 1.0625 C-6.91432171 0.10358043 -3.92718859 -0.03927189 0 0 Z" transform="translate(189.75,151.9375)"/><path fill="#EADD8E" d="M0 0 C5.28 0 10.56 0 16 0 C16 3.3 16 6.6 16 10 C10.72 10 5.44 10 0 10 C0 6.7 0 3.4 0 0 Z" transform="translate(123,125)"/><path fill="#F3E998" d="M0 0 C5.28 0 10.56 0 16 0 C16 3.3 16 6.6 16 10 C10.72 10 5.44 10 0 10 C0 6.7 0 3.4 0 0 Z" transform="translate(219,111)"/><path fill="#CCC17D" d="M0 0 C1.65 0 3.3 0 5 0 C5 9.24 5 18.48 5 28 C3.35 28 1.7 28 0 28 C0 18.76 0 9.52 0 0 Z" transform="translate(154,301)"/><path fill="#EADD8E" d="M0 0 C4.62 0 9.24 0 14 0 C14 3.3 14 6.6 14 10 C9.38 10 4.76 10 0 10 C0 6.7 0 3.4 0 0 Z" transform="translate(204,153)"/><path fill="#21211E" d="M0 0 C3.0625 2.3125 3.0625 2.3125 5 5 C5 5.99 5 6.98 5 8 C-1.27 8 -7.54 8 -14 8 C-13 3 -13 3 -11.5 1.1875 C-7.68428152 -0.62496628 -4.13825937 -0.80261614 0 0 Z" transform="translate(215,305)"/><path fill="#A48E57" d="M0 0 C13.52989919 -1.20563458 13.52989919 -1.20563458 19 0 C22.35223302 2.87334259 23.76267681 5.80060009 25 10 C15.93778947 9.47718016 7.57056176 5.95477351 0 1 C0 0.67 0 0.34 0 0 Z" transform="translate(141,166)"/><path fill="#E8DB8D" d="M0 0 C2.57134435 -0.10546731 5.07444732 -0.03715896 7.64355469 0.11083984 C8.53171875 0.13791016 9.41988281 0.16498047 10.33496094 0.19287109 C12.52363864 0.2634736 14.70735037 0.36198457 16.89355469 0.48583984 C15.33163561 3.60967799 12.23457887 4.22189878 9.14355469 5.48583984 C8.2115625 5.87642578 8.2115625 5.87642578 7.26074219 6.27490234 C5.4753393 7.02070355 3.684533 7.75352871 1.89355469 8.48583984 C0.97703125 8.87513672 0.06050781 9.26443359 -0.88378906 9.66552734 C-3.41468997 10.59960325 -5.42978561 10.63879183 -8.10644531 10.48583984 C-7.48175026 9.13233391 -6.8007391 7.80499804 -6.10644531 6.48583984 C-5.62175781 5.45458984 -5.13707031 4.42333984 -4.63769531 3.36083984 C-2.10644531 0.48583984 -2.10644531 0.48583984 0 0 Z" transform="translate(196.1064453125,165.51416015625)"/><path fill="#8C6530" d="M0 0 C0.66 0.33 1.32 0.66 2 1 C1 3 0 5 -1 7 C-1.66 7 -2.32 7 -3 7 C-3.26683594 7.54269531 -3.53367188 8.08539063 -3.80859375 8.64453125 C-4.66823398 10.34408226 -5.56047077 12.02728196 -6.47265625 13.69921875 C-9.81124878 19.97446024 -11.76260045 24.87801363 -12 32 C-13.32 32 -14.64 32 -16 32 C-16.832025 23.34694 -14.04746999 15.93018544 -8.734375 9.078125 C-6.55262421 6.64300961 -4.32744675 4.29543864 -2 2 C-1.34 1.34 -0.68 0.68 0 0 Z" transform="translate(155,59)"/><path fill="#EFE393" d="M0 0 C3.96 0 7.92 0 12 0 C12 3.3 12 6.6 12 10 C8.04 10 4.08 10 0 10 C0 6.7 0 3.4 0 0 Z" transform="translate(212,139)"/><path fill="#F0E595" d="M0 0 C3.96 0 7.92 0 12 0 C12 3.3 12 6.6 12 10 C8.04 10 4.08 10 0 10 C0 6.7 0 3.4 0 0 Z" transform="translate(159,111)"/><path fill="#AE8949" d="M0 0 C0.84433594 0.00322266 1.68867188 0.00644531 2.55859375 0.00976562 C3.86763672 0.02233398 3.86763672 0.02233398 5.203125 0.03515625 C6.09128906 0.03966797 6.97945312 0.04417969 7.89453125 0.04882812 C10.08075816 0.06058203 12.26695028 0.07851659 14.453125 0.09765625 C14.453125 3.72765625 14.453125 7.35765625 14.453125 11.09765625 C13.133125 11.09765625 11.813125 11.09765625 10.453125 11.09765625 C10.453125 7.79765625 10.453125 4.49765625 10.453125 1.09765625 C6.163125 1.09765625 1.873125 1.09765625 -2.546875 1.09765625 C-2.546875 4.39765625 -2.546875 7.69765625 -2.546875 11.09765625 C-4.526875 11.09765625 -6.506875 11.09765625 -8.546875 11.09765625 C-8.546875 7.79765625 -8.546875 4.49765625 -8.546875 1.09765625 C-5.33700084 0.29518771 -3.21053978 -0.02169284 0 0 Z" transform="translate(187.546875,109.90234375)"/><path fill="#806437" d="M0 0 C7.59 0 15.18 0 23 0 C23 3.63 23 7.26 23 11 C21.68 11 20.36 11 19 11 C19 7.7 19 4.4 19 1 C14.71 1 10.42 1 6 1 C6 4.3 6 7.6 6 11 C4.35 11 2.7 11 1 11 C0.67 7.37 0.34 3.74 0 0 Z" transform="translate(152,124)"/><path fill="#927A47" d="M0 0 C9.57 0 19.14 0 29 0 C32 8 32 8 32 11 C30.02 11 28.04 11 26 11 C26 7.7 26 4.4 26 1 C20.06 1 14.12 1 8 1 C8.33 3.31 8.66 5.62 9 8 C6 8 6 8 4.39453125 6.7578125 C3.87246094 6.21898437 3.35039062 5.68015625 2.8125 5.125 C2.28269531 4.59132812 1.75289063 4.05765625 1.20703125 3.5078125 C0 2 0 2 0 0 Z" transform="translate(125,152)"/><path fill="#9F7F46" d="M0 0 C0.74507812 0.00451172 1.49015625 0.00902344 2.2578125 0.01367188 C4.0885764 0.02540754 5.91929873 0.0433415 7.75 0.0625 C7.60892253 1.52130109 7.46197585 2.97953551 7.3125 4.4375 C7.23128906 5.24960938 7.15007812 6.06171875 7.06640625 6.8984375 C6.75 9.0625 6.75 9.0625 5.75 11.0625 C5.09 11.0625 4.43 11.0625 3.75 11.0625 C3.75 7.7625 3.75 4.4625 3.75 1.0625 C0.12 1.0625 -3.51 1.0625 -7.25 1.0625 C-7.25 4.3625 -7.25 7.6625 -7.25 11.0625 C-8.9 11.0625 -10.55 11.0625 -12.25 11.0625 C-12.25 7.7625 -12.25 4.4625 -12.25 1.0625 C-8.06269376 0.01567344 -4.27143069 -0.04905353 0 0 Z" transform="translate(191.25,137.9375)"/><path fill="#746743" d="M0 0 C11.22 0 22.44 0 34 0 C37 9 37 9 37 11 C35.35 11 33.7 11 32 11 C32 7.7 32 4.4 32 1 C23.09 1 14.18 1 5 1 C5.33 4.3 5.66 7.6 6 11 C0 3.6 0 3.6 0 0 Z" transform="translate(116,138)"/><path fill="#BEA663" d="M0 0 C1.65 0 3.3 0 5 0 C5 6.27 5 12.54 5 19 C3.35 19 1.7 19 0 19 C0 12.73 0 6.46 0 0 Z" transform="translate(174,90)"/><path fill="#B89855" d="M0 0 C2.97 0 5.94 0 9 0 C9 3.3 9 6.6 9 10 C6.03 10 3.06 10 0 10 C0 6.7 0 3.4 0 0 Z" transform="translate(139,139)"/><path fill="#C7AB65" d="M0 0 C2.97 0 5.94 0 9 0 C9 3.3 9 6.6 9 10 C6.03 10 3.06 10 0 10 C0 6.7 0 3.4 0 0 Z" transform="translate(114,125)"/><path fill="#AE8949" d="M0 0 C2.97 0 5.94 0 9 0 C9 3.3 9 6.6 9 10 C6.03 10 3.06 10 0 10 C0 6.7 0 3.4 0 0 Z" transform="translate(207,125)"/><path fill="#EBDE8F" d="M0 0 C2.97 0 5.94 0 9 0 C9 3.3 9 6.6 9 10 C6.03 10 3.06 10 0 10 C0 6.7 0 3.4 0 0 Z" transform="translate(186,125)"/><path fill="#CBB26A" d="M0 0 C2.97 0 5.94 0 9 0 C9 3.3 9 6.6 9 10 C6.03 10 3.06 10 0 10 C0 6.7 0 3.4 0 0 Z" transform="translate(210,111)"/><path fill="#D2BC73" d="M0 0 C2.97 0 5.94 0 9 0 C9.09765625 6.93359375 9.09765625 6.93359375 9 9 C8 10 8 10 6.15234375 10.09765625 C4.1015625 10.06510417 2.05078125 10.03255208 0 10 C0 6.7 0 3.4 0 0 Z" transform="translate(224,139)"/><path fill="#D7C47A" d="M0 0 C3.63 0 7.26 0 11 0 C11 3.63 11 7.26 11 11 C5.34110971 8.73644388 5.34110971 8.73644388 2.6875 5.5 C2.17574219 4.8915625 1.66398438 4.283125 1.13671875 3.65625 C0 2 0 2 0 0 Z" transform="translate(164,166)"/><path fill="#C1AA67" d="M0 0 C5.85912634 1.99210296 9.82578916 4.55236788 13 10 C13.73665765 12.77215905 13.89843693 15.10545249 14 18 C12.68 18 11.36 18 10 18 C9.84144531 17.39671875 9.68289062 16.7934375 9.51953125 16.171875 C7.99559336 10.95175626 6.79228859 7.99518037 2 5 C1.01 4.34 0.02 3.68 -1 3 C-0.67 2.01 -0.34 1.02 0 0 Z" transform="translate(181,73)"/><path fill="#E0CF83" d="M0 0 C2.64 0 5.28 0 8 0 C8 3.3 8 6.6 8 10 C5.36 10 2.72 10 0 10 C0 6.7 0 3.4 0 0 Z" transform="translate(160,139)"/><path fill="#B39C5E" d="M0 0 C3.63 0 7.26 0 11 0 C9.22077461 3.55845078 7.71347422 6.13147011 5 9 C2.25 9.8125 2.25 9.8125 0 10 C0 6.7 0 3.4 0 0 Z" transform="translate(179,166)"/><path fill="#C3A761" d="M0 0 C2.31 0 4.62 0 7 0 C7 3.3 7 6.6 7 10 C4.69 10 2.38 10 0 10 C0 6.7 0 3.4 0 0 Z" transform="translate(205,139)"/><path fill="#BC9D59" d="M0 0 C2.31 0 4.62 0 7 0 C7 3.3 7 6.6 7 10 C4.69 10 2.38 10 0 10 C0 6.7 0 3.4 0 0 Z" transform="translate(233,125)"/><path fill="#BFA05C" d="M0 0 C2.31 0 4.62 0 7 0 C7 3.3 7 6.6 7 10 C4.69 10 2.38 10 0 10 C0 6.7 0 3.4 0 0 Z" transform="translate(139,125)"/><path fill="#C2A560" d="M0 0 C2.31 0 4.62 0 7 0 C7 3.3 7 6.6 7 10 C4.69 10 2.38 10 0 10 C0 6.7 0 3.4 0 0 Z" transform="translate(179,125)"/><path fill="#C1A35E" d="M0 0 C2.31 0 4.62 0 7 0 C7 3.3 7 6.6 7 10 C4.69 10 2.38 10 0 10 C0 6.7 0 3.4 0 0 Z" transform="translate(134,111)"/><path fill="#BC9C58" d="M0 0 C2.31 0 4.62 0 7 0 C7 3.3 7 6.6 7 10 C5.02 10 3.04 10 1 10 C-0.1577506 6.52674819 -0.06866652 3.63932552 0 0 Z" transform="translate(121,139)"/><path fill="#CCB46D" d="M0 0 C4.29 0 8.58 0 13 0 C12.1302743 4.34862851 11.0525056 7.16270693 9 11 C8.01 11 7.02 11 6 11 C6 7.7 6 4.4 6 1 C4.02 1 2.04 1 0 1 C0 0.67 0 0.34 0 0 Z" transform="translate(183,152)"/><path fill="#C0A25D" d="M0 0 C1.98 0 3.96 0 6 0 C6 3.3 6 6.6 6 10 C4.02 10 2.04 10 0 10 C0 6.7 0 3.4 0 0 Z" transform="translate(116,111)"/><path fill="#B59351" d="M0 0 C1.98 0 3.96 0 6 0 C6 3.3 6 6.6 6 10 C4.02 10 2.04 10 0 10 C0 6.7 0 3.4 0 0 Z" transform="translate(235,111)"/><path fill="#94743F" d="M0 0 C6.27 0 12.54 0 19 0 C19 3.63 19 7.26 19 11 C17.68 11 16.36 11 15 11 C15 7.7 15 4.4 15 1 C10.05 1 5.1 1 0 1 C0 0.67 0 0.34 0 0 Z" transform="translate(183,110)"/><path fill="#94733E" d="M0 0 C6.27 0 12.54 0 19 0 C19 3.63 19 7.26 19 11 C17.68 11 16.36 11 15 11 C15 7.7 15 4.4 15 1 C10.05 1 5.1 1 0 1 C0 0.67 0 0.34 0 0 Z" transform="translate(156,110)"/><path fill="#C8AF69" d="M0 0 C3.3 0 6.6 0 10 0 C6.7366183 3.93089159 4.11767846 6.91174115 0 10 C0 6.7 0 3.4 0 0 Z" transform="translate(218,153)"/><path fill="#BBA160" d="M0 0 C-4.03476464 4.70722542 -9.21062481 7.07020827 -15 9 C-13.1399638 4.65991552 -10.69834104 1.89162905 -6.5 -0.3125 C-3.83600828 -1.04509772 -2.55680815 -0.94696598 0 0 Z" transform="translate(169,55)"/><path fill="#CAB069" d="M0 0 C1.65 0 3.3 0 5 0 C5 3.3 5 6.6 5 10 C3.35 10 1.7 10 0 10 C0 6.7 0 3.4 0 0 Z" transform="translate(146,153)"/><path fill="#BD9E5A" d="M0 0 C1.65 0 3.3 0 5 0 C5 3.3 5 6.6 5 10 C3.35 10 1.7 10 0 10 C0 6.7 0 3.4 0 0 Z" transform="translate(168,139)"/><path fill="#DFCE81" d="M0 0 C1.65 0 3.3 0 5 0 C5 3.3 5 6.6 5 10 C3.35 10 1.7 10 0 10 C0 6.7 0 3.4 0 0 Z" transform="translate(216,125)"/><path fill="#CAB069" d="M0 0 C1.65 0 3.3 0 5 0 C5 3.3 5 6.6 5 10 C3.35 10 1.7 10 0 10 C0 6.7 0 3.4 0 0 Z" transform="translate(166,111)"/><path fill="#9B753B" d="M0 0 C1 2 1 2 0.4765625 4.05859375 C0.19554687 4.84363281 -0.08546875 5.62867187 -0.375 6.4375 C-0.65085938 7.21996094 -0.92671875 8.00242187 -1.2109375 8.80859375 C-1.47132813 9.53175781 -1.73171875 10.25492188 -2 11 C-2.33 11.99 -2.66 12.98 -3 14 C-3.99 14 -4.98 14 -6 14 C-5.5414571 8.26821381 -4.14522 4.14522 0 0 Z" transform="translate(165,76)"/><path fill="#C0A35E" d="M0 0 C1.32 0 2.64 0 4 0 C4 3.3 4 6.6 4 10 C2.68 10 1.36 10 0 10 C0 6.7 0 3.4 0 0 Z" transform="translate(169,153)"/><path fill="#AD8747" d="M0 0 C1.32 0 2.64 0 4 0 C4 3.3 4 6.6 4 10 C2.68 10 1.36 10 0 10 C0 6.7 0 3.4 0 0 Z" transform="translate(179,153)"/><path fill="#D0B970" d="M0 0 C1.32 0 2.64 0 4 0 C4 3.3 4 6.6 4 10 C2.68 10 1.36 10 0 10 C0 6.7 0 3.4 0 0 Z" transform="translate(204,153)"/><path fill="#E3D386" d="M0 0 C1.32 0 2.64 0 4 0 C4 3.3 4 6.6 4 10 C2.68 10 1.36 10 0 10 C0 6.7 0 3.4 0 0 Z" transform="translate(128,139)"/><path fill="#D2BC72" d="M0 0 C1.32 0 2.64 0 4 0 C4 3.3 4 6.6 4 10 C2.68 10 1.36 10 0 10 C0 6.7 0 3.4 0 0 Z" transform="translate(139,139)"/><path fill="#D2BB72" d="M0 0 C1.32 0 2.64 0 4 0 C4 3.3 4 6.6 4 10 C2.68 10 1.36 10 0 10 C0 6.7 0 3.4 0 0 Z" transform="translate(191,139)"/><path fill="#EBDE8F" d="M0 0 C1.32 0 2.64 0 4 0 C4 3.3 4 6.6 4 10 C2.68 10 1.36 10 0 10 C0 6.7 0 3.4 0 0 Z" transform="translate(164,139)"/><path fill="#DAC77C" d="M0 0 C1.32 0 2.64 0 4 0 C4 3.3 4 6.6 4 10 C2.68 10 1.36 10 0 10 C0 6.7 0 3.4 0 0 Z" transform="translate(212,139)"/><path fill="#B69553" d="M0 0 C1.32 0 2.64 0 4 0 C4 3.3 4 6.6 4 10 C2.68 10 1.36 10 0 10 C0 6.7 0 3.4 0 0 Z" transform="translate(156,139)"/><path fill="#C7AC66" d="M0 0 C1.32 0 2.64 0 4 0 C4 3.3 4 6.6 4 10 C2.68 10 1.36 10 0 10 C0 6.7 0 3.4 0 0 Z" transform="translate(167,125)"/><path fill="#D9C57A" d="M0 0 C1.32 0 2.64 0 4 0 C4 3.3 4 6.6 4 10 C2.68 10 1.36 10 0 10 C0 6.7 0 3.4 0 0 Z" transform="translate(158,125)"/><path fill="#B3914F" d="M0 0 C1.32 0 2.64 0 4 0 C4 3.3 4 6.6 4 10 C2.68 10 1.36 10 0 10 C0 6.7 0 3.4 0 0 Z" transform="translate(154,125)"/><path fill="#AE8949" d="M0 0 C1.32 0 2.64 0 4 0 C4 3.3 4 6.6 4 10 C2.68 10 1.36 10 0 10 C0 6.7 0 3.4 0 0 Z" transform="translate(114,125)"/><path fill="#D2BB72" d="M0 0 C1.32 0 2.64 0 4 0 C4 3.3 4 6.6 4 10 C2.68 10 1.36 10 0 10 C0 6.7 0 3.4 0 0 Z" transform="translate(229,125)"/><path fill="#C7AB65" d="M0 0 C1.32 0 2.64 0 4 0 C4 3.3 4 6.6 4 10 C2.68 10 1.36 10 0 10 C0 6.7 0 3.4 0 0 Z" transform="translate(212,125)"/><path fill="#D5BF75" d="M0 0 C1.32 0 2.64 0 4 0 C4 3.3 4 6.6 4 10 C2.68 10 1.36 10 0 10 C0 6.7 0 3.4 0 0 Z" transform="translate(135,125)"/><path fill="#D0B970" d="M0 0 C1.32 0 2.64 0 4 0 C4 3.3 4 6.6 4 10 C2.68 10 1.36 10 0 10 C0 6.7 0 3.4 0 0 Z" transform="translate(231,111)"/><path fill="#AB8545" d="M0 0 C1.32 0 2.64 0 4 0 C4 3.3 4 6.6 4 10 C2.68 10 1.36 10 0 10 C0 6.7 0 3.4 0 0 Z" transform="translate(141,111)"/><path fill="#AC8747" d="M0 0 C1.32 0 2.64 0 4 0 C4 3.3 4 6.6 4 10 C2.68 10 1.36 10 0 10 C0 6.7 0 3.4 0 0 Z" transform="translate(112,111)"/><path fill="#E6D789" d="M0 0 C1.32 0 2.64 0 4 0 C4 3.3 4 6.6 4 10 C2.68 10 1.36 10 0 10 C0 6.7 0 3.4 0 0 Z" transform="translate(227,111)"/><path fill="#E3D385" d="M0 0 C1.32 0 2.64 0 4 0 C4 3.3 4 6.6 4 10 C2.68 10 1.36 10 0 10 C0 6.7 0 3.4 0 0 Z" transform="translate(122,111)"/><path fill="#C7AC65" d="M0 0 C1.32 0 2.64 0 4 0 C4 3.3 4 6.6 4 10 C2.68 10 1.36 10 0 10 C0 6.7 0 3.4 0 0 Z" transform="translate(194,111)"/><path fill="#B3904E" d="M0 0 C1.32 0 2.64 0 4 0 C4 3.3 4 6.6 4 10 C2.68 10 1.36 10 0 10 C0 6.7 0 3.4 0 0 Z" transform="translate(210,111)"/><path fill="#9D7235" d="M0 0 C1.32 0 2.64 0 4 0 C4 3.3 4 6.6 4 10 C2.68 10 1.36 10 0 10 C0 6.7 0 3.4 0 0 Z" transform="translate(206,111)"/><path fill="#B89855" d="M0 0 C1.32 0 2.64 0 4 0 C4 2.97 4 5.94 4 9 C2.68 9.33 1.36 9.66 0 10 C0 6.7 0 3.4 0 0 Z" transform="translate(229,139)"/><path fill="#8D6935" d="M0 0 C2.64 0 5.28 0 8 0 C8 0.33 8 0.66 8 1 C6.02 1 4.04 1 2 1 C2 4.3 2 7.6 2 11 C0.68 11 -0.64 11 -2 11 C-1 3.57142857 -1 3.57142857 0 0 Z" transform="translate(203,138)"/><path fill="#8B6530" d="M0 0 C2.64 0 5.28 0 8 0 C8 0.33 8 0.66 8 1 C6.35 1 4.7 1 3 1 C3 4.3 3 7.6 3 11 C2.01 11 1.02 11 0 11 C0 7.37 0 3.74 0 0 Z" transform="translate(109,110)"/><path fill="#876433" d="M0 0 C2.0343459 1.41519715 2.90410393 2.54982123 3.421875 4.98046875 C3.66273952 6.98176954 3.83532741 8.9909944 4 11 C2.68 11 1.36 11 0 11 C-0.66 8.36 -1.32 5.72 -2 3 C-1.34 3 -0.68 3 0 3 C0 2.01 0 1.02 0 0 Z" transform="translate(191,80)"/><path fill="#A78649" d="M0 0 C0.66 0.33 1.32 0.66 2 1 C1 3 0 5 -1 7 C-1.66 7 -2.32 7 -3 7 C-3.66 8.32 -4.32 9.64 -5 11 C-5.99 11 -6.98 11 -8 11 C-8 8 -8 8 -6.25 5.95703125 C-5.5075 5.24933594 -4.765 4.54164062 -4 3.8125 C-2.88625 2.73935547 -2.88625 2.73935547 -1.75 1.64453125 C-1.1725 1.10183594 -0.595 0.55914062 0 0 Z" transform="translate(155,59)"/><path fill="#C6AB65" d="M0 0 C1.32 0 2.64 0 4 0 C4 3.3 4 6.6 4 10 C3.01 10 2.02 10 1 10 C-0.1577506 6.52674819 -0.06866652 3.63932552 0 0 Z" transform="translate(160,153)"/><path fill="#A47C3E" d="M0 0 C0.99 0 1.98 0 3 0 C3.66 3.3 4.32 6.6 5 10 C3.35 10 1.7 10 0 10 C0 6.7 0 3.4 0 0 Z" transform="translate(148,139)"/><path fill="#90713E" d="M0 0 C3.63 0 7.26 0 11 0 C11 3.63 11 7.26 11 11 C10.01 10.67 9.02 10.34 8 10 C8.33 7.03 8.66 4.06 9 1 C6.69 1 4.38 1 2 1 C1.67 1.99 1.34 2.98 1 4 C0.67 2.68 0.34 1.36 0 0 Z" transform="translate(164,166)"/><path fill="#B79A59" d="M0 0 C2.31 0 4.62 0 7 0 C7.33 2.31 7.66 4.62 8 7 C5 7 5 7 2.3125 4.625 C0 2 0 2 0 0 Z" transform="translate(126,153)"/><path fill="#D4BE74" d="M0 0 C1.32 0 2.64 0 4 0 C4 3.3 4 6.6 4 10 C2.68 9.34 1.36 8.68 0 8 C0 5.36 0 2.72 0 0 Z" transform="translate(133,153)"/><path fill="#EADF90" d="M0 0 C1.98 0 3.96 0 6 0 C6 1.98 6 3.96 6 6 C4.33388095 6.042721 2.66617115 6.04063832 1 6 C0 5 0 5 -0.0625 2.4375 C-0.041875 1.633125 -0.02125 0.82875 0 0 Z" transform="translate(151,167)"/><path fill="#8F7C4D" d="M0 0 C6.27 0 12.54 0 19 0 C17.37633534 3.24732932 14.24612161 3.70155136 11 5 C11 3.68 11 2.36 11 1 C7.37 1 3.74 1 0 1 C0 0.67 0 0.34 0 0 Z" transform="translate(194,166)"/><path fill="#836334" d="M0 0 C4.29 0 8.58 0 13 0 C13 0.33 13 0.66 13 1 C10.03 1 7.06 1 4 1 C4 4.3 4 7.6 4 11 C2.16163081 7.32326162 1.06348187 3.95007553 0 0 Z" transform="translate(110,124)"/><path fill="#A2874D" d="M0 0 C0.33 0 0.66 0 1 0 C1.33 2.64 1.66 5.28 2 8 C-0.31 8.33 -2.62 8.66 -5 9 C-3.50164236 5.88802644 -1.86022073 2.91164984 0 0 Z" transform="translate(193,167)"/><path fill="#E4D487" d="M0 0 C0.99 0 1.98 0 3 0 C3 3.3 3 6.6 3 10 C2.01 10 1.02 10 0 10 C0 6.7 0 3.4 0 0 Z" transform="translate(143,153)"/><path fill="#F5EC9B" d="M0 0 C0.99 0 1.98 0 3 0 C3 3.3 3 6.6 3 10 C2.01 10 1.02 10 0 10 C0 6.7 0 3.4 0 0 Z" transform="translate(140,153)"/><path fill="#AF8B4A" d="M0 0 C0.99 0 1.98 0 3 0 C3 3.3 3 6.6 3 10 C2.01 10 1.02 10 0 10 C0 6.7 0 3.4 0 0 Z" transform="translate(205,139)"/><path fill="#CFB76F" d="M0 0 C0.99 0 1.98 0 3 0 C3 3.3 3 6.6 3 10 C2.01 10 1.02 10 0 10 C0 6.7 0 3.4 0 0 Z" transform="translate(125,139)"/><path fill="#F2E897" d="M0 0 C0.99 0 1.98 0 3 0 C3 3.3 3 6.6 3 10 C2.01 10 1.02 10 0 10 C0 6.7 0 3.4 0 0 Z" transform="translate(188,139)"/><path fill="#DAC67B" d="M0 0 C0.99 0 1.98 0 3 0 C3 3.3 3 6.6 3 10 C2.01 10 1.02 10 0 10 C0 6.7 0 3.4 0 0 Z" transform="translate(192,125)"/><path fill="#A1773A" d="M0 0 C0.99 0 1.98 0 3 0 C3 3.3 3 6.6 3 10 C2.01 10 1.02 10 0 10 C0 6.7 0 3.4 0 0 Z" transform="translate(179,125)"/><path fill="#E5D588" d="M0 0 C0.99 0 1.98 0 3 0 C3 3.3 3 6.6 3 10 C2.01 10 1.02 10 0 10 C0 6.7 0 3.4 0 0 Z" transform="translate(226,125)"/><path fill="#7E6034" d="M0 0 C3.96 0 7.92 0 12 0 C11.4140625 6.15234375 11.4140625 6.15234375 11 8 C10.01 8.495 10.01 8.495 9 9 C9 6.36 9 3.72 9 1 C6.03 1 3.06 1 0 1 C0 0.67 0 0.34 0 0 Z" transform="translate(231,124)"/><path fill="#A98243" d="M0 0 C0.99 0 1.98 0 3 0 C3 3.3 3 6.6 3 10 C2.01 10 1.02 10 0 10 C0 6.7 0 3.4 0 0 Z" transform="translate(237,125)"/><path fill="#A67F40" d="M0 0 C0.99 0 1.98 0 3 0 C3 3.3 3 6.6 3 10 C2.01 10 1.02 10 0 10 C0 6.7 0 3.4 0 0 Z" transform="translate(171,125)"/><path fill="#AC8646" d="M0 0 C0.99 0 1.98 0 3 0 C3 3.3 3 6.6 3 10 C2.01 10 1.02 10 0 10 C0 6.7 0 3.4 0 0 Z" transform="translate(143,125)"/><path fill="#E8D98B" d="M0 0 C0.99 0 1.98 0 3 0 C3 3.3 3 6.6 3 10 C2.01 10 1.02 10 0 10 C0 6.7 0 3.4 0 0 Z" transform="translate(132,125)"/><path fill="#9D7135" d="M0 0 C0.99 0 1.98 0 3 0 C3 3.3 3 6.6 3 10 C2.01 10 1.02 10 0 10 C0 6.7 0 3.4 0 0 Z" transform="translate(241,111)"/><path fill="#D4BE74" d="M0 0 C0.99 0 1.98 0 3 0 C3 3.3 3 6.6 3 10 C2.01 10 1.02 10 0 10 C0 6.7 0 3.4 0 0 Z" transform="translate(134,111)"/><path fill="#E1D083" d="M0 0 C0.99 0 1.98 0 3 0 C3 3.3 3 6.6 3 10 C2.01 10 1.02 10 0 10 C0 6.7 0 3.4 0 0 Z" transform="translate(219,111)"/><path fill="#D7C278" d="M0 0 C0.99 0 1.98 0 3 0 C3 3.3 3 6.6 3 10 C2.01 10 1.02 10 0 10 C0 6.7 0 3.4 0 0 Z" transform="translate(185,111)"/><path fill="#E2D184" d="M0 0 C0.99 0 1.98 0 3 0 C3 3.3 3 6.6 3 10 C2.01 10 1.02 10 0 10 C0 6.7 0 3.4 0 0 Z" transform="translate(159,111)"/><path fill="#A2783B" d="M0 0 C0.99 0 1.98 0 3 0 C3 3.3 3 6.6 3 10 C2.01 10 1.02 10 0 10 C0 6.7 0 3.4 0 0 Z" transform="translate(152,111)"/><path fill="#E4D487" d="M0 0 C0.99 0 1.98 0 3 0 C3 3.3 3 6.6 3 10 C2.01 10 1.02 10 0 10 C0 6.7 0 3.4 0 0 Z" transform="translate(131,111)"/><path fill="#D0B86F" d="M0 0 C0.99 0 1.98 0 3 0 C3 3.3 3 6.6 3 10 C2.01 10 1.02 10 0 10 C0 6.7 0 3.4 0 0 Z" transform="translate(119,111)"/><path fill="#A17B3E" d="M0 0 C1.65 0 3.3 0 5 0 C5.33 3.3 5.66 6.6 6 10 C3.25722422 6.80009492 1.3697164 3.99500618 0 0 Z" transform="translate(116,139)"/><path fill="#AD8949" d="M0 0 C0.99 0 1.98 0 3 0 C3.125 7.75 3.125 7.75 2 10 C1.34 10 0.68 10 0 10 C0 6.7 0 3.4 0 0 Z" transform="translate(195,139)"/><path fill="#ECE090" d="M0 0 C2.97 0 5.94 0 9 0 C9.33 0.99 9.66 1.98 10 3 C6.7 3 3.4 3 0 3 C0 2.01 0 1.02 0 0 Z" transform="translate(172,73)"/><path fill="#DED287" d="M0 0 C1.98 0.495 1.98 0.495 4 1 C3.67 2.65 3.34 4.3 3 6 C1.68 5.67 0.36 5.34 -1 5 C-0.67 3.35 -0.34 1.7 0 0 Z" transform="translate(155,290)"/><path fill="#897143" d="M0 0 C4.29 0 8.58 0 13 0 C12 5 12 5 10 7 C10 5.02 10 3.04 10 1 C6.7 1 3.4 1 0 1 C0 0.67 0 0.34 0 0 Z" transform="translate(183,152)"/><path fill="#976B31" d="M0 0 C0.66 0 1.32 0 2 0 C2 3.3 2 6.6 2 10 C1.01 10 0.02 10 -1 10 C-0.67 6.7 -0.34 3.4 0 0 Z" transform="translate(205,125)"/><path fill="#C5AD68" d="M0 0 C2.64 0 5.28 0 8 0 C8 1.65 8 3.3 8 5 C5.36 3.68 2.72 2.36 0 1 C0 0.67 0 0.34 0 0 Z" transform="translate(143,167)"/><path fill="#CAB773" d="M0 0 C-1.8125 2 -1.8125 2 -4 4 C-4.99 4 -5.98 4 -7 4 C-7 2.68 -7 1.36 -7 0 C-3.86650268 -1.04449911 -3.01031744 -0.93423645 0 0 Z" transform="translate(169,55)"/><path fill="#956F37" d="M0 0 C0.33 0 0.66 0 1 0 C1 3.3 1 6.6 1 10 C-0.32 10 -1.64 10 -3 10 C-2.01 6.7 -1.02 3.4 0 0 Z" transform="translate(199,153)"/><path fill="#D5C077" d="M0 0 C0.99 0 1.98 0 3 0 C3.33 2.31 3.66 4.62 4 7 C2.68 7 1.36 7 0 7 C0 4.69 0 2.38 0 0 Z" transform="translate(194,167)"/><path fill="#AF8B4A" d="M0 0 C1.98 0 3.96 0 6 0 C4.35830472 2.02054804 2.69088222 4.02043058 1 6 C0.67 6 0.34 6 0 6 C0 4.02 0 2.04 0 0 Z" transform="translate(222,153)"/><path fill="#CCB871" d="M0 0 C0.66 0 1.32 0 2 0 C2.66 2.31 3.32 4.62 4 7 C2.68 7.33 1.36 7.66 0 8 C0 5.36 0 2.72 0 0 Z" transform="translate(181,167)"/><path fill="#936C35" d="M0 0 C2.12508244 3.18762365 2.5020163 5.26512223 3 9 C2.01 9 1.02 9 0 9 C0 6.03 0 3.06 0 0 Z" transform="translate(154,154)"/><path fill="#A58144" d="M0 0 C1.65 0 3.3 0 5 0 C4.67 1.65 4.34 3.3 4 5 C2 3.625 2 3.625 0 2 C0 1.34 0 0.68 0 0 Z" transform="translate(126,153)"/><path fill="#8A632F" d="M0 0 C0.33 0 0.66 0 1 0 C1.66 3.3 2.32 6.6 3 10 C2.01 10 1.02 10 0 10 C0 6.7 0 3.4 0 0 Z" transform="translate(150,139)"/><path fill="#88602C" d="M0 0 C0.33 0 0.66 0 1 0 C1.33 3.3 1.66 6.6 2 10 C1.01 10 0.02 10 -1 10 C-0.67 6.7 -0.34 3.4 0 0 Z" transform="translate(148,125)"/><path fill="#AA894B" d="M0 0 C0.99 0.66 1.98 1.32 3 2 C3 3.32 3 4.64 3 6 C-0.875 4.25 -0.875 4.25 -2 2 C-1.34 2 -0.68 2 0 2 C0 1.34 0 0.68 0 0 Z" transform="translate(188,77)"/></svg>