<svg xmlns="http://www.w3.org/2000/svg" width="374" height="373" version="1.1"><path fill="#010100" d="M0 0 C123.42 0 246.84 0 374 0 C374 123.09 374 246.18 374 373 C250.58 373 127.16 373 0 373 C0 249.91 0 126.82 0 0 Z" transform="translate(0,0)"/><path fill="#D0BA7B" d="M0 0 C123.42 0 246.84 0 374 0 C374 123.09 374 246.18 374 373 C250.58 373 127.16 373 0 373 C0 249.91 0 126.82 0 0 Z M151 15 C150.10522949 15.22574707 149.21045898 15.45149414 148.28857422 15.68408203 C124.35809064 21.83016251 102.69368849 31.22135465 82.5625 45.5625 C81.81653564 46.09262695 81.07057129 46.62275391 80.30200195 47.16894531 C76.00292916 50.30450093 72.19680124 53.63729257 68.4987793 57.4621582 C66.80097472 59.20421245 65.00117894 60.7656947 63.125 62.3125 C30.86711676 90.36014128 13.5413844 134.18837304 10.2109375 175.91357422 C7.06034115 222.01292504 20.89850354 267.69942935 51.37890625 302.734375 C52.88169933 304.41262108 54.39678641 306.07996523 55.92578125 307.734375 C57.81245969 309.79515371 59.59272426 311.9119155 61.375 314.0625 C65.71040798 319.02435454 70.82734315 322.95066395 76 327 C77.50240234 328.22589844 77.50240234 328.22589844 79.03515625 329.4765625 C113.13322775 357.01032794 158.3478945 369.26303785 201.75 365.69140625 C240.66863205 361.25813466 273.95105324 347.01456825 304 322 C304.70769531 321.41605469 305.41539062 320.83210938 306.14453125 320.23046875 C310.92095176 316.18466706 314.99374002 311.79933594 319 307 C320.19496094 305.60201172 320.19496094 305.60201172 321.4140625 304.17578125 C351.85873117 268.25843045 367.33792604 222.62462535 363.50390625 175.484375 C362.23837019 161.57776207 360.32612065 148.29184896 356 135 C355.79568359 134.34773438 355.59136719 133.69546875 355.38085938 133.0234375 C347.77696683 109.1737682 334.12647445 87.12821163 317 69 C315.70659799 67.48064222 314.41492029 65.95981483 313.125 64.4375 C308.58550962 59.32156639 303.35949281 55.21965701 298 51 C297.20851563 50.33097656 296.41703125 49.66195312 295.6015625 48.97265625 C273.38195031 30.33328057 245.26177829 20.00887753 217.13818359 14.44213867 C215.70703224 14.1462018 214.28223 13.81780695 212.86572266 13.45825195 C204.50393424 11.46502462 196.04170415 11.64572301 187.5 11.6875 C186.29047668 11.69123123 186.29047668 11.69123123 185.05651855 11.69503784 C173.44793481 11.75057371 162.28228968 12.03435546 151 15 Z" transform="translate(0,0)"/><path fill="#020201" d="M0 0 C1.15027679 -0.0049926 1.15027679 -0.0049926 2.3237915 -0.01008606 C3.94078984 -0.01512801 5.5577985 -0.01749523 7.17480469 -0.01733398 C9.61931997 -0.01951227 12.06337735 -0.03767433 14.5078125 -0.05664062 C22.5622569 -0.08652753 30.0476241 0.15136893 37.890625 2.16796875 C39.58475252 2.5213542 41.28012645 2.86880585 42.9765625 3.2109375 C74.36975117 9.89843597 102.3099706 22.47579644 126.41357422 43.85839844 C127.82519907 45.10996136 129.25019727 46.34639184 130.67578125 47.58203125 C135.85516364 52.12863841 140.55769256 56.80954483 144.890625 62.16796875 C145.64988281 63.10125 146.40914063 64.03453125 147.19140625 64.99609375 C177.66811634 103.13555387 190.94460404 149.66154355 185.640625 198.10546875 C184.45693216 208.04665563 182.8981572 217.59685778 179.890625 227.16796875 C179.65891602 227.92174805 179.42720703 228.67552734 179.18847656 229.45214844 C173.47130012 247.73681184 165.5269698 264.8844114 153.890625 280.16796875 C153.44541504 280.75835937 153.00020508 281.34875 152.54150391 281.95703125 C147.37981475 288.77981014 142.17469082 295.33276477 135.890625 301.16796875 C135.065625 301.99296875 134.240625 302.81796875 133.390625 303.66796875 C132.565625 304.49296875 131.740625 305.31796875 130.890625 306.16796875 C130.44976562 306.65523438 130.00890625 307.1425 129.5546875 307.64453125 C114.85338891 323.39059217 94.24564654 333.47911203 74.890625 342.16796875 C73.68792969 342.70808594 72.48523438 343.24820312 71.24609375 343.8046875 C33.29137767 359.22517168 -16.30955026 358.46616847 -54.16552734 342.82836914 C-57.52454829 341.3631745 -60.82110766 339.78482187 -64.109375 338.16796875 C-64.85687012 337.80574219 -65.60436523 337.44351562 -66.37451172 337.0703125 C-82.57283088 329.14740406 -96.97566643 319.55685453 -110.109375 307.16796875 C-111.33251931 306.13992722 -112.56121783 305.11843605 -113.796875 304.10546875 C-117.66002537 300.796752 -120.87206341 297.0820065 -124.109375 293.16796875 C-124.76945557 292.38437988 -124.76945557 292.38437988 -125.44287109 291.58496094 C-156.3712638 254.76889495 -170.46330614 208.74367559 -166.640625 160.8515625 C-162.47496712 115.86045466 -141.63538034 74.93865424 -108.234375 44.48046875 C-106.87610464 43.35578628 -105.49791218 42.25506282 -104.109375 41.16796875 C-103.57683105 40.74483398 -103.04428711 40.32169922 -102.49560547 39.88574219 C-76.14392735 19.06066501 -47.06452335 7.01244166 -14.109375 1.16796875 C-13.19591309 0.98999756 -12.28245117 0.81202637 -11.34130859 0.62866211 C-7.5497735 0.08820081 -3.82097576 0.00586397 0 0 Z M-29.109375 25.16796875 C-29.92905762 25.39339355 -30.74874023 25.61881836 -31.59326172 25.85107422 C-71.34842303 36.95658391 -106.00914565 64.01502175 -126.359375 99.91796875 C-146.74711172 137.3654915 -151.65290414 179.9776698 -139.74609375 220.890625 C-137.63247883 227.86318218 -135.10331645 234.52232599 -132.109375 241.16796875 C-131.34367187 242.88306641 -131.34367187 242.88306641 -130.5625 244.6328125 C-114.67405997 278.2633439 -86.52212599 303.68047446 -53.109375 319.16796875 C-51.67271484 319.85826172 -51.67271484 319.85826172 -50.20703125 320.5625 C-33.02344695 328.32839534 -14.81656537 331.39660986 3.890625 332.16796875 C5.06431641 332.21775879 5.06431641 332.21775879 6.26171875 332.26855469 C24.7121233 332.92518156 41.43455517 330.09438979 58.890625 324.16796875 C59.59429199 323.9359375 60.29795898 323.70390625 61.02294922 323.46484375 C98.68150064 310.93930187 130.83738576 283.11635279 148.72412109 247.62792969 C151.09132899 242.63588557 153.19378792 237.53831745 155.265625 232.41796875 C155.68271729 231.38881348 156.09980957 230.3596582 156.52954102 229.29931641 C163.26608596 212.11652401 165.31320785 194.86092247 165.265625 176.54296875 C165.26508118 175.75116211 165.26453735 174.95935547 165.26397705 174.14355469 C165.22481146 161.71584222 164.29822778 150.16978434 160.890625 138.16796875 C160.44992495 136.47541546 160.00984134 134.78270156 159.5703125 133.08984375 C156.59265552 122.06721608 152.49265613 112.10264268 146.890625 102.16796875 C146.34269287 101.18739502 146.34269287 101.18739502 145.78369141 100.18701172 C141.13438984 91.94515988 136.12095673 84.32443088 129.890625 77.16796875 C129.18164062 76.34941406 128.47265625 75.53085938 127.7421875 74.6875 C125.49494709 72.14457006 123.20527939 69.64962002 120.890625 67.16796875 C120.14296875 66.35457031 119.3953125 65.54117188 118.625 64.703125 C96.5727918 41.59211873 64.23923474 26.74183998 32.890625 22.16796875 C31.82134766 21.99740967 30.75207031 21.82685059 29.65039062 21.65112305 C10.62888974 19.20673667 -10.69181935 19.77411592 -29.109375 25.16796875 Z" transform="translate(177.109375,11.83203125)"/><path fill="#C6B175" d="M0 0 C0.76341705 0.00432037 1.52683411 0.00864075 2.31338501 0.01309204 C19.96901933 0.13001983 36.04285206 2.35623371 52.6875 8.375 C53.91855469 8.81714844 55.14960938 9.25929688 56.41796875 9.71484375 C70.54831242 15.09003244 83.79419219 21.99250162 95.6875 31.375 C96.47898437 31.96410156 97.27046875 32.55320313 98.0859375 33.16015625 C130.69915064 58.01585753 150.26789343 95.06897343 156.41796875 135.20690918 C157.24442226 141.85484433 157.13220311 148.56309493 157.0625 155.25 C157.05601944 156.43305725 157.05601944 156.43305725 157.04940796 157.64001465 C156.9757038 169.11925542 156.58116625 180.21036869 153.6875 191.375 C153.52652832 192.01066895 153.36555664 192.64633789 153.19970703 193.30126953 C145.04734097 224.618572 127.2034397 255.06296906 101.6875 275.375 C100.9140625 276.00825195 100.9140625 276.00825195 100.125 276.65429688 C84.15660311 289.64644122 66.50944339 298.55562104 46.89599609 304.68457031 C44.90899715 305.3057546 42.93223957 305.95947416 40.95703125 306.6171875 C26.32496757 311.23074958 10.93431428 312.02179649 -4.3125 311.375 C-5.18003906 311.33922852 -6.04757813 311.30345703 -6.94140625 311.26660156 C-49.6898848 309.20733941 -86.27032195 289.80795266 -115.4375 259.125 C-124.13347683 249.32432254 -131.5184558 238.11646017 -137.3125 226.375 C-137.81265625 225.37339844 -138.3128125 224.37179687 -138.828125 223.33984375 C-156.11742774 187.40778276 -159.78290378 145.73569666 -147.13720703 107.70703125 C-132.94245518 67.5684079 -106.17422179 35.9250154 -68.3125 16.375 C-67.67054687 16.03839355 -67.02859375 15.70178711 -66.3671875 15.35498047 C-58.9372336 11.49970386 -51.37930626 8.57395298 -43.375 6.125 C-42.23248779 5.77356934 -42.23248779 5.77356934 -41.06689453 5.41503906 C-27.37420136 1.43928104 -14.20571145 -0.15324245 0 0 Z M-112.3125 56.375 C-129.42651318 76.68613653 -140.53436237 99.45426167 -146.3125 125.375 C-146.54582031 126.38304687 -146.77914062 127.39109375 -147.01953125 128.4296875 C-151.99995047 151.43277481 -149.90907684 175.9287295 -143.3125 198.375 C-142.97605469 199.53 -142.63960937 200.685 -142.29296875 201.875 C-135.55135163 223.52032588 -123.65624359 242.79241329 -108.3125 259.375 C-107.61350586 260.1477124 -107.61350586 260.1477124 -106.90039062 260.93603516 C-86.82119469 282.99058218 -57.62554768 298.86911009 -28.3125 304.375 C-27.23484375 304.57867187 -26.1571875 304.78234375 -25.046875 304.9921875 C10.20467852 310.46742879 44.55192727 304.6334057 75.6875 287.375 C76.70328125 286.84648437 77.7190625 286.31796875 78.765625 285.7734375 C95.86816963 276.49050552 111.24357166 261.9944157 122.6875 246.375 C123.07260742 245.84986816 123.45771484 245.32473633 123.85449219 244.78369141 C136.13750921 227.81052951 145.21861128 207.8870872 149.6875 187.375 C149.87207764 186.5296167 150.05665527 185.6842334 150.24682617 184.81323242 C151.82694991 176.61945272 151.99457388 168.59634925 151.94824219 160.28515625 C151.93754768 158.01014358 151.94818422 155.73592596 151.9609375 153.4609375 C151.97515041 140.51911409 150.52632098 128.13006008 147.0625 115.625 C146.80380127 114.69034912 146.54510254 113.75569824 146.27856445 112.79272461 C137.60584319 82.73052476 118.72744827 55.1549612 93.6875 36.375 C92.90536133 35.77244385 92.90536133 35.77244385 92.10742188 35.15771484 C78.54052751 24.73427151 63.80538337 17.92070954 47.6875 12.375 C46.61113281 11.99472656 45.53476563 11.61445312 44.42578125 11.22265625 C-11.47608809 -7.36453996 -73.54688172 13.62531329 -112.3125 56.375 Z" transform="translate(185.3125,32.625)"/><path fill="#617CFE" d="M0 0 C123.42 0 246.84 0 374 0 C374 123.09 374 246.18 374 373 C373.34 373 372.68 373 372 373 C371.505 190.84 371.505 190.84 371 5 C249.56 5 128.12 5 3 5 C2.67 126.44 2.34 247.88 2 373 C1.34 373 0.68 373 0 373 C0 249.91 0 126.82 0 0 Z" transform="translate(0,0)"/><path fill="#A17A3D" d="M0 0 C7.47866162 3.85909586 11.36207454 8.23187754 14.125 16.25 C15.36036966 23.19771897 14.18399917 28.89363178 10.74609375 35.01953125 C6.92544471 40.27637608 1.52252961 43.99558243 -4.875 45.25 C-12.91757772 46.18044085 -19.25304212 45.07440364 -25.875 40.25 C-30.9117446 35.07769085 -34.1286898 29.38247085 -34.3125 22.0625 C-34.15239336 15.07431601 -31.99675924 9.28993894 -26.9375 4.36328125 C-18.82354867 -1.98342689 -9.76538349 -4.14783847 0 0 Z" transform="translate(285.875,202.75)"/><path fill="#E7DC8F" d="M0 0 C3.91875 -0.0825 7.8375 -0.165 11.875 -0.25 C13.69620361 -0.30462402 13.69620361 -0.30462402 15.55419922 -0.36035156 C22.7306244 -0.43275813 28.73106004 0.31238826 35 4 C37.25390625 6.2890625 37.25390625 6.2890625 38.5625 8.625 C39.24505859 9.78902344 39.24505859 9.78902344 39.94140625 10.9765625 C43.06816043 16.95316273 42.83227323 23.87140054 41.50390625 30.4609375 C39.28045527 37.01823361 34.98958391 40.84758741 29 44 C25.76248322 45.07917226 23.42248229 45.11425601 20.01953125 45.09765625 C18.97128174 45.09515869 17.92303223 45.09266113 16.84301758 45.09008789 C15.51294678 45.08098389 14.18287598 45.07187988 12.8125 45.0625 C8.584375 45.041875 4.35625 45.02125 0 45 C0 30.15 0 15.3 0 0 Z" transform="translate(166,202)"/><path fill="#CBB56E" d="M0 0 C4.33125 -0.061875 8.6625 -0.12375 13.125 -0.1875 C14.47996582 -0.21481201 15.83493164 -0.24212402 17.23095703 -0.27026367 C18.85300049 -0.28150269 18.85300049 -0.28150269 20.5078125 -0.29296875 C21.60754395 -0.3086792 22.70727539 -0.32438965 23.84033203 -0.34057617 C28.11899056 0.12061442 31.48591134 1.58661082 34.64453125 4.53515625 C38.39931453 9.44525746 39.506092 11.72445924 39 18 C38.02928523 20.92797119 36.9360733 23.58684273 35 26 C32.35546875 27.23046875 32.35546875 27.23046875 30 28 C30.721875 29.05960938 31.44375 30.11921875 32.1875 31.2109375 C33.12524162 32.5987951 34.06272848 33.98682488 35 35.375 C35.47695312 36.07367188 35.95390625 36.77234375 36.4453125 37.4921875 C37.12207031 38.49765625 37.12207031 38.49765625 37.8125 39.5234375 C38.44091797 40.450354 38.44091797 40.450354 39.08203125 41.39599609 C40 43 40 43 40 45 C35.73053682 45.91024088 32.22791608 46.2087046 28 45 C25.63029261 42.10124166 23.90212164 39.42476893 22.29516602 36.06787109 C21.24377388 33.8636481 21.24377388 33.8636481 19 31 C16.19613669 30.08881137 13.99484796 30.04699029 11 30 C11 34.95 11 39.9 11 45 C7.37 45 3.74 45 0 45 C0 30.15 0 15.3 0 0 Z" transform="translate(211,202)"/><path fill="#CEB76E" d="M0 0 C9 0 9 0 12.00390625 2.7109375 C12.88578134 3.9115125 13.7378395 5.13442793 14.5625 6.375 C15.48640367 7.65666505 16.41088775 8.93791189 17.3359375 10.21875 C18.00447754 11.17587891 18.00447754 11.17587891 18.68652344 12.15234375 C20.58170939 14.81828562 22.62378661 17.33728883 24.6875 19.875 C25.780625 21.23625 26.87375 22.5975 28 24 C28.33 16.08 28.66 8.16 29 0 C32.3 0 35.6 0 39 0 C39 14.85 39 29.7 39 45 C30 45 30 45 27.7565918 43.42700195 C26.98569214 42.34358521 26.98569214 42.34358521 26.19921875 41.23828125 C25.61462891 40.44873047 25.03003906 39.65917969 24.42773438 38.84570312 C23.85345703 38.00974609 23.27917969 37.17378906 22.6875 36.3125 C22.09388672 35.49587891 21.50027344 34.67925781 20.88867188 33.83789062 C19.74611313 32.2648025 18.61511629 30.6832319 17.49755859 29.09228516 C16.2579176 27.36034461 14.9302682 25.69178195 13.58203125 24.04296875 C12 22 12 22 12 20 C11.34 20 10.68 20 10 20 C10 28.25 10 36.5 10 45 C6.7 45 3.4 45 0 45 C0 30.15 0 15.3 0 0 Z" transform="translate(122,202)"/><path fill="#A27A3D" d="M0 0 C1.93166016 0.01740234 1.93166016 0.01740234 3.90234375 0.03515625 C5.19269531 0.04417969 6.48304687 0.05320313 7.8125 0.0625 C8.81152344 0.07410156 9.81054688 0.08570313 10.83984375 0.09765625 C14.35829482 8.39590812 17.70620595 16.75199846 20.91674805 25.17333984 C21.41306493 26.47170348 21.91248801 27.76888341 22.41479492 29.06494141 C23.15282887 30.96925416 23.8820912 32.87671613 24.609375 34.78515625 C25.03839111 35.90277344 25.46740723 37.02039063 25.90942383 38.171875 C26.83984375 41.09765625 26.83984375 41.09765625 26.83984375 45.09765625 C23.20984375 45.09765625 19.57984375 45.09765625 15.83984375 45.09765625 C15.17984375 42.12765625 14.51984375 39.15765625 13.83984375 36.09765625 C7.23984375 36.09765625 0.63984375 36.09765625 -6.16015625 36.09765625 C-6.82015625 39.06765625 -7.48015625 42.03765625 -8.16015625 45.09765625 C-11.79015625 45.09765625 -15.42015625 45.09765625 -19.16015625 45.09765625 C-17.91979185 39.03713215 -16.3432535 33.37795702 -14.15625 27.59765625 C-13.73122948 26.45502319 -13.73122948 26.45502319 -13.29762268 25.28930664 C-12.70455384 23.6984968 -12.10865539 22.10873915 -11.51000977 20.52001953 C-10.59037734 18.07833023 -9.6802732 15.63324342 -8.77148438 13.1875 C-8.1919541 11.63651394 -7.61189541 10.08572519 -7.03125 8.53515625 C-6.75832626 7.80296875 -6.48540253 7.07078125 -6.20420837 6.31640625 C-3.86289717 0.11937259 -3.86289717 0.11937259 0 0 Z" transform="translate(93.16015625,201.90234375)"/><path fill="#D2BC7F" d="M0 0 C123.42 0 246.84 0 374 0 C374 1.65 374 3.3 374 5 C373.01 4.34 372.02 3.68 371 3 C368.16710435 2.6979094 368.16710435 2.6979094 364.89204407 2.74831772 C363.60603145 2.74310222 362.32001883 2.73788673 360.99503613 2.73251319 C359.55959709 2.73683773 358.12415862 2.74135106 356.6887207 2.74603271 C355.17034156 2.74372975 353.65196352 2.74055433 352.13358784 2.73657823 C347.95034845 2.72819905 343.76719985 2.73236961 339.58396006 2.73855066 C335.07674946 2.74306143 330.56955487 2.73609825 326.06234741 2.73059082 C317.22844302 2.72168042 308.39457254 2.72362614 299.5606668 2.7294161 C292.38351013 2.73392612 285.206363 2.73454836 278.02920532 2.73236847 C277.00914502 2.732062 275.98908473 2.73175554 274.93811351 2.73143978 C272.8661193 2.73080036 270.7941251 2.73015193 268.72213089 2.7294946 C249.2762303 2.72378648 229.83034854 2.73035674 210.38445103 2.74109533 C193.68565323 2.75003128 176.98688324 2.74847937 160.28808594 2.73925781 C140.91351329 2.72856368 121.53895717 2.72433585 102.16438198 2.73048234 C100.09985288 2.73111946 98.03532378 2.7317482 95.97079468 2.73236847 C94.9549092 2.73267702 93.93902372 2.73298557 92.89235383 2.73330347 C85.7207632 2.73503299 78.54918301 2.7321098 71.37759399 2.72740936 C62.64220975 2.72181003 53.90686147 2.72329695 45.17148137 2.73397085 C40.71143186 2.73924038 36.25144239 2.74126261 31.79139328 2.73467255 C27.71298174 2.72873736 23.6346862 2.73194773 19.55628526 2.74262765 C18.07652094 2.74487205 16.59674693 2.74370228 15.11698878 2.73887607 C13.11398445 2.73284163 11.11095288 2.74019445 9.10795593 2.74831772 C7.43525902 2.74880478 7.43525902 2.74880478 5.72877026 2.74930167 C2.7816009 2.80163951 2.7816009 2.80163951 0 5 C0 3.35 0 1.7 0 0 Z" transform="translate(0,0)"/><path fill="#020201" d="M0 0 C4.89270769 2.40019623 7.18686184 4.86277521 9 10 C9.5609452 15.23548855 8.82799347 18.55601027 6 23 C2.75953856 25.93666818 0.06485065 26.89954239 -4.3125 27.3125 C-8.75886282 26.93568959 -10.63948122 25.90226622 -14 23 C-17.05146436 18.52451893 -17.95053785 14.29132736 -17 9 C-13.29310034 1.72349326 -8.23088383 -1.43636992 0 0 Z" transform="translate(280,211)"/><path fill="#835A26" d="M0 0 C3.83625 -0.12375 3.83625 -0.12375 7.75 -0.25 C8.54889648 -0.28641602 9.34779297 -0.32283203 10.17089844 -0.36035156 C13.66761731 -0.41496027 15.65101164 -0.24720009 18.53125 1.79296875 C20 4 20 4 19.75 7.5625 C19.5025 8.696875 19.255 9.83125 19 11 C19 11.99 19 12.98 19 14 C19.66 14.66 20.32 15.32 21 16 C20.77685871 22.1363855 20.77685871 22.1363855 18.4609375 24.7109375 C14.944081 26.55310043 11.61068943 26.31948605 7.75 26.1875 C5.1925 26.125625 2.635 26.06375 0 26 C0 17.42 0 8.84 0 0 Z" transform="translate(96,260)"/><path fill="#2D2413" d="M0 0 C1.26972656 0.01160156 2.53945312 0.02320313 3.84765625 0.03515625 C5.11480469 0.04417969 6.38195312 0.05320313 7.6875 0.0625 C8.75097656 0.07410156 9.81445312 0.08570313 10.91015625 0.09765625 C11.57015625 0.09765625 12.23015625 0.09765625 12.91015625 0.09765625 C17.91015625 0.09765625 22.91015625 0.09765625 27.91015625 0.09765625 C27.03515625 7.97265625 27.03515625 7.97265625 25.91015625 9.09765625 C25.91015625 10.25265625 25.91015625 11.40765625 25.91015625 12.59765625 C25.91015625 13.75265625 25.91015625 14.90765625 25.91015625 16.09765625 C24.91015625 17.09765625 24.91015625 17.09765625 22.31811523 17.21118164 C21.19219971 17.20594482 20.06628418 17.20070801 18.90625 17.1953125 C17.69130859 17.19208984 16.47636719 17.18886719 15.22460938 17.18554688 C13.94521484 17.17716797 12.66582031 17.16878906 11.34765625 17.16015625 C10.06439453 17.15564453 8.78113281 17.15113281 7.45898438 17.14648438 C4.27599603 17.1346517 1.09309863 17.11816693 -2.08984375 17.09765625 C-3.4386715 14.40000074 -3.08984375 12.08187603 -3.08984375 9.09765625 C-3.41984375 8.76765625 -3.74984375 8.43765625 -4.08984375 8.09765625 C-4.21484375 4.59765625 -4.21484375 4.59765625 -4.08984375 1.09765625 C-3.08984375 0.09765625 -3.08984375 0.09765625 0 0 Z" transform="translate(175.08984375,142.90234375)"/><path fill="#020201" d="M0 0 C12.87919756 -0.60183166 12.87919756 -0.60183166 16.0078125 1.078125 C17.3125 2.4375 17.3125 2.4375 19 5 C19.33 5.33 19.66 5.66 20 6 C20.15252309 7.91240484 20.22192773 9.83172799 20.25 11.75 C20.27578125 12.79671875 20.3015625 13.8434375 20.328125 14.921875 C19.9560428 18.4123604 19.09034813 20.20635717 17 23 C13.2632157 25.49118953 11.25548181 25.2065226 6.8125 25.125 C4.564375 25.08375 2.31625 25.0425 0 25 C0 16.75 0 8.5 0 0 Z" transform="translate(177,212)"/><path fill="#CDBD77" d="M0 0 C6.52196749 5.43302139 10.98273919 12.79054847 13.25 20.9375 C13.47663986 23.64811275 13.3440868 26.20898292 13.25 28.9375 C12.26 28.9375 11.27 28.9375 10.25 28.9375 C10.12044922 27.79474609 10.12044922 27.79474609 9.98828125 26.62890625 C8.54335884 16.01071497 4.94153943 7.59006994 -3.75 0.9375 C-13.05631569 -4.2431732 -23.06526809 -5.73124538 -33.57421875 -3.44921875 C-42.50463368 -0.26679459 -48.8068091 5.57046462 -53.25 13.875 C-55.60450092 18.99376306 -56.56296055 23.32631644 -56.75 28.9375 C-57.74 28.9375 -58.73 28.9375 -59.75 28.9375 C-60.4966177 20.3513965 -56.97984328 12.66158422 -51.75 5.9375 C-38.31676158 -9.74633334 -16.86626404 -11.7922115 0 0 Z" transform="translate(209.75,92.0625)"/><path fill="#E2D285" d="M0 0 C3.46145669 0.86536417 4.94931405 2.62635769 6.9375 5.484375 C6.9375 7.464375 6.9375 9.444375 6.9375 11.484375 C1.9875 11.484375 -2.9625 11.484375 -8.0625 11.484375 C-7.0725 13.134375 -6.0825 14.784375 -5.0625 16.484375 C-0.97649472 17.08025077 0.46398925 16.80004884 3.9375 14.484375 C4.9275 14.814375 5.9175 15.144375 6.9375 15.484375 C5.14597786 18.09022539 3.7248232 19.33658842 0.5859375 19.92578125 C-3.66756558 20.12026295 -6.20112653 20.12015066 -9.6875 17.546875 C-11.55237035 13.39330013 -11.97687353 9.95914105 -11.0625 5.484375 C-8.09246064 0.93650223 -5.26046807 -0.35866828 0 0 Z" transform="translate(211.0625,266.515625)"/><path fill="#8E6630" d="M0 0 C0.99 0 1.98 0 3 0 C1.3186083 6.48707154 -0.53062327 12.7677635 -3 19 C-3.99 19 -4.98 19 -6 19 C-7.65 15.04 -9.3 11.08 -11 7 C-12.32 10.96 -13.64 14.92 -15 19 C-16.32 18.67 -17.64 18.34 -19 18 C-20.13266715 15.47534453 -20.97728657 13.1940995 -21.75 10.5625 C-22.08064453 9.52125977 -22.08064453 9.52125977 -22.41796875 8.45898438 C-24 3.38371021 -24 3.38371021 -24 1 C-23.01 1 -22.02 1 -21 1 C-19.68 4.63 -18.36 8.26 -17 12 C-15.35 8.37 -13.7 4.74 -12 1 C-11.01 1 -10.02 1 -9 1 C-7.68 4.63 -6.36 8.26 -5 12 C-3.60863728 9.21727456 -2.43631605 6.64449832 -1.375 3.75 C-0.92125 2.5125 -0.4675 1.275 0 0 Z" transform="translate(274,267)"/><path fill="#E4D487" d="M0 0 C8.58 0 17.16 0 26 0 C26 2.31 26 4.62 26 7 C17.42 7 8.84 7 0 7 C0 4.69 0 2.38 0 0 Z" transform="translate(206,134)"/><path fill="#E8DA8C" d="M0 0 C8.58 0 17.16 0 26 0 C26 2.31 26 4.62 26 7 C17.42 7 8.84 7 0 7 C0 4.69 0 2.38 0 0 Z" transform="translate(142,134)"/><path fill="#030201" d="M0 0 C2.45862401 -0.05383848 4.9160755 -0.09359038 7.375 -0.125 C8.42300781 -0.15013672 8.42300781 -0.15013672 9.4921875 -0.17578125 C11.32897486 -0.19344267 13.16601963 -0.10303261 15 0 C17 2 17 2 17.3125 5.5 C17.209375 6.655 17.10625 7.81 17 9 C13.2632157 11.49118953 11.25548181 11.2065226 6.8125 11.125 C5.54019531 11.10695312 4.26789063 11.08890625 2.95703125 11.0703125 C1.49330078 11.03550781 1.49330078 11.03550781 0 11 C0 7.37 0 3.74 0 0 Z" transform="translate(222,212)"/><path fill="#E7D88A" d="M0 0 C8.58 0 17.16 0 26 0 C25.34 2.31 24.68 4.62 24 7 C16.08 7 8.16 7 0 7 C0 4.69 0 2.38 0 0 Z" transform="translate(205,143)"/><path fill="#AA9356" d="M0 0 C8.25 0 16.5 0 25 0 C25 2.31 25 4.62 25 7 C21.20847666 7.0867982 17.41720704 7.14032207 13.625 7.1875 C12.54476562 7.21263672 11.46453125 7.23777344 10.3515625 7.26367188 C8.8046875 7.27817383 8.8046875 7.27817383 7.2265625 7.29296875 C6.27346191 7.3086792 5.32036133 7.32438965 4.33837891 7.34057617 C3.56671387 7.22818604 2.79504883 7.1157959 2 7 C0 4 0 4 0 0 Z" transform="translate(143,143)"/><path fill="#AF9354" d="M0 0 C5.35852513 3.92755535 9.40572907 7.83860654 12 14 C12.29198659 16.76413974 12.19591639 19.20819143 12 22 C11.34 22 10.68 22 10 22 C9.85304688 21.12988281 9.85304688 21.12988281 9.703125 20.2421875 C8.47187683 13.80997726 6.53769479 9.46720327 1.75 4.8125 C-3.9019749 1.08733473 -10.14512962 -1.33358387 -17 0 C-22.86341104 2.15227928 -27.58884618 4.59900646 -31 10 C-31.99 11.485 -31.99 11.485 -33 13 C-33.66613335 15.27538323 -33.66613335 15.27538323 -34.125 17.6875 C-34.29257813 18.49574219 -34.46015625 19.30398437 -34.6328125 20.13671875 C-34.75398437 20.75160156 -34.87515625 21.36648437 -35 22 C-35.66 22 -36.32 22 -37 22 C-36.96825509 14.25424223 -35.3608517 9.62172039 -30 4 C-21.6453197 -3.92623516 -10.15056857 -5.93712501 0 0 Z" transform="translate(199,99)"/><path fill="#B69D5C" d="M0 0 C7.59 0 15.18 0 23 0 C20 6 20 6 19 7 C17.5112814 7.08669432 16.018555 7.10703494 14.52734375 7.09765625 C13.62822266 7.09443359 12.72910156 7.09121094 11.80273438 7.08789062 C10.85720703 7.07951172 9.91167969 7.07113281 8.9375 7.0625 C7.98810547 7.05798828 7.03871094 7.05347656 6.06054688 7.04882812 C3.70696935 7.0370011 1.35351523 7.02052025 -1 7 C-0.67 4.69 -0.34 2.38 0 0 Z" transform="translate(204,153)"/><path fill="#AE9153" d="M0 0 C7.59 0 15.18 0 23 0 C23.33 2.31 23.66 4.62 24 7 C17.4 7 10.8 7 4 7 C2.02 3.535 2.02 3.535 0 0 Z" transform="translate(146,153)"/><path fill="#B19A5C" d="M0 0 C0.99 0 1.98 0 3 0 C3 5.28 3 10.56 3 16 C4.65 14.35 6.3 12.7 8 11 C8.66 10.34 9.32 9.68 10 9 C11.32 9.33 12.64 9.66 14 10 C12.02 12.31 10.04 14.62 8 17 C8.5053125 17.55429687 9.010625 18.10859375 9.53125 18.6796875 C10.1809375 19.40414063 10.830625 20.12859375 11.5 20.875 C12.1496875 21.59429687 12.799375 22.31359375 13.46875 23.0546875 C15 25 15 25 15 27 C12.63403644 26.82474344 11.31748495 26.34023014 9.69140625 24.59765625 C9.25699219 24.04980469 8.82257813 23.50195312 8.375 22.9375 C7.59125 21.968125 6.8075 20.99875 6 20 C5.34 20 4.68 20 4 20 C3.67 22.31 3.34 24.62 3 27 C2.01 27 1.02 27 0 27 C0 18.09 0 9.18 0 0 Z" transform="translate(223,259)"/><path fill="#A48448" d="M0 0 C0.99 0 1.98 0 3 0 C4.98 4.29 6.96 8.58 9 13 C10.98 8.71 12.96 4.42 15 0 C15.99 0 16.98 0 18 0 C15.24892128 8.90054879 11.59701637 17.41643491 8 26 C6.68 25.67 5.36 25.34 4 25 C4.53625 24.13375 5.0725 23.2675 5.625 22.375 C7.28299406 19.17521403 7.28299406 19.17521403 6.5 16.3125 C5.5837047 14.28901454 4.66502951 12.26660189 3.7421875 10.24609375 C3.29101562 9.25738281 2.83984375 8.26867187 2.375 7.25 C1.92898437 6.30640625 1.48296875 5.3628125 1.0234375 4.390625 C0 2 0 2 0 0 Z" transform="translate(120,268)"/><path fill="#020100" d="M0 0 C2.12472576 -0.05386629 4.24983652 -0.09273071 6.375 -0.125 C7.55835937 -0.14820313 8.74171875 -0.17140625 9.9609375 -0.1953125 C13 0 13 0 15 2 C15.25 4.5 15.25 4.5 15 7 C13 9 13 9 9.9609375 9.1953125 C8.77757813 9.17210937 7.59421875 9.14890625 6.375 9.125 C5.18648438 9.10695313 3.99796875 9.08890625 2.7734375 9.0703125 C1.85820313 9.04710937 0.94296875 9.02390625 0 9 C0 6.03 0 3.06 0 0 Z" transform="translate(99,274)"/><path fill="#E2D184" d="M0 0 C6.6 0 13.2 0 20 0 C20.66 2.31 21.32 4.62 22 7 C7.13046142 8.03340423 7.13046142 8.03340423 2.5625 4.0625 C0 1 0 1 0 0 Z" transform="translate(152,162)"/><path fill="#F1E695" d="M0 0 C1.18613892 0.00785522 1.18613892 0.00785522 2.39624023 0.01586914 C3.67724609 0.02070313 3.67724609 0.02070313 4.98413086 0.02563477 C5.88196289 0.03401367 6.77979492 0.04239258 7.70483398 0.05102539 C8.6065332 0.05553711 9.50823242 0.06004883 10.43725586 0.06469727 C12.67234712 0.07652315 14.90730835 0.09300319 17.14233398 0.11352539 C15.35968393 2.72278381 13.53446705 5.03715389 11.14233398 7.11352539 C8.09730126 7.65178875 6.22717918 7.81201949 3.26733398 7.55102539 C2.23479492 7.50365234 2.23479492 7.50365234 1.18139648 7.45532227 C-0.50016494 7.3735797 -2.17950098 7.2480348 -3.85766602 7.11352539 C-2.82390732 0.17257418 -2.82390732 0.17257418 0 0 Z" transform="translate(203.857666015625,161.886474609375)"/><path fill="#E4DD91" d="M0 0 C1.796875 0.08984375 1.796875 0.08984375 4 1 C6.41497064 5.17080939 8.10253132 9.55819831 10 14 C11.98 9.38 13.96 4.76 16 0 C16.99 0 17.98 0 19 0 C16.94235079 6.45353615 14.57616518 12.7361263 12 19 C10.68 19 9.36 19 8 19 C6.66042079 16.21128823 5.32941565 13.41856938 4 10.625 C3.6184375 9.8309375 3.236875 9.036875 2.84375 8.21875 C2.4828125 7.45820313 2.121875 6.69765625 1.75 5.9140625 C1.41484375 5.2123291 1.0796875 4.5105957 0.734375 3.78759766 C0 2 0 2 0 0 Z" transform="translate(178,267)"/><path fill="#0A0804" d="M0 0 C0.66 0 1.32 0 2 0 C2.83719383 2.29032311 3.6698929 4.58210957 4.5 6.875 C4.73847656 7.52597656 4.97695312 8.17695313 5.22265625 8.84765625 C7 13.7734375 7 13.7734375 7 16 C3.04 16 -0.92 16 -5 16 C-3.40615011 10.63886855 -1.8106711 5.29273092 0 0 Z" transform="translate(96,213)"/><path fill="#010100" d="M0 0 C1.95803507 -0.05389087 3.91648909 -0.09274217 5.875 -0.125 C7.51082031 -0.15980469 7.51082031 -0.15980469 9.1796875 -0.1953125 C12 0 12 0 14 2 C13.44444444 6.55555556 13.44444444 6.55555556 12 8 C9.98035801 8.07244053 7.95832876 8.08377188 5.9375 8.0625 C4.83277344 8.05347656 3.72804688 8.04445313 2.58984375 8.03515625 C1.30787109 8.01775391 1.30787109 8.01775391 0 8 C0 5.36 0 2.72 0 0 Z" transform="translate(99,263)"/><path fill="#E3D285" d="M0 0 C4.95 0 9.9 0 15 0 C15 2.31 15 4.62 15 7 C10.05 7 5.1 7 0 7 C0 4.69 0 2.38 0 0 Z" transform="translate(170,134)"/><path fill="#E6D789" d="M0 0 C4.95 0 9.9 0 15 0 C15 2.31 15 4.62 15 7 C10.05 7 5.1 7 0 7 C0 4.69 0 2.38 0 0 Z" transform="translate(188,134)"/><path fill="#C6B570" d="M0 0 C0.99 0 1.98 0 3 0 C4.98 4.29 6.96 8.58 9 13 C10.98 8.71 12.96 4.42 15 0 C15.99 0 16.98 0 18 0 C16.06375702 6.20477864 13.74390859 12.10825719 11 18 C9.68 18 8.36 18 7 18 C5.82887054 15.37690901 4.66294036 12.75171858 3.5 10.125 C3.16613281 9.37863281 2.83226562 8.63226563 2.48828125 7.86328125 C2.17246094 7.14785156 1.85664063 6.43242187 1.53125 5.6953125 C1.23798828 5.03547363 0.94472656 4.37563477 0.64257812 3.69580078 C0 2 0 2 0 0 Z" transform="translate(150,268)"/><path fill="#C4AE6A" d="M0 0 C1.33417969 0.00386719 1.33417969 0.00386719 2.6953125 0.0078125 C4.02175781 0.00394531 4.02175781 0.00394531 5.375 0 C7.8203125 0.1328125 7.8203125 0.1328125 10.8203125 1.1328125 C10.8203125 3.1128125 10.8203125 5.0928125 10.8203125 7.1328125 C6.2003125 7.1328125 1.5803125 7.1328125 -3.1796875 7.1328125 C-3.1796875 0.1937444 -3.1796875 0.1937444 0 0 Z" transform="translate(174.1796875,142.8671875)"/><path fill="#997238" d="M0 0 C4.75 0.75 4.75 0.75 7 3 C6.74438677 5.3431213 6.40729228 7.67843403 6 10 C6 10.99 6 11.98 6 13 C6.66 13.66 7.32 14.32 8 15 C7.53846154 21.46153846 7.53846154 21.46153846 5 24 C2.375 24.125 2.375 24.125 0 24 C0.66 23.443125 1.32 22.88625 2 22.3125 C4.20636705 20.16715906 4.20636705 20.16715906 4.4375 17.375 C4.2209375 16.199375 4.2209375 16.199375 4 15 C1.09907498 13.06604999 0.10325263 12.69868059 -3.1875 12.375 C-4.445625 12.25125 -5.70375 12.1275 -7 12 C-7 11.67 -7 11.34 -7 11 C-4.03 10.34 -1.06 9.68 2 9 C2.77802187 6.6984589 2.77802187 6.6984589 3 4 C1.66846734 1.69495956 1.66846734 1.69495956 0 0 Z" transform="translate(109,261)"/><path fill="#211B0F" d="M0 0 C0.33 0.99 0.66 1.98 1 3 C1.66 3 2.32 3 3 3 C3 3.66 3 4.32 3 5 C7.62 5 12.24 5 17 5 C17 5.33 17 5.66 17 6 C12.71 6 8.42 6 4 6 C4 7.98 4 9.96 4 12 C3.34 12.66 2.68 13.32 2 14 C1.67 11.69 1.34 9.38 1 7 C-6.59 7 -14.18 7 -22 7 C-22.66 5.68 -23.32 4.36 -24 3 C-16.08 3.33 -8.16 3.66 0 4 C0 2.68 0 1.36 0 0 Z" transform="translate(168,146)"/><path fill="#B89E5C" d="M0 0 C4.29 0 8.58 0 13 0 C13 1.98 13 3.96 13 6 C12 7 12 7 9.27734375 7.09765625 C7.62412109 7.08025391 7.62412109 7.08025391 5.9375 7.0625 C4.83277344 7.05347656 3.72804687 7.04445312 2.58984375 7.03515625 C1.30787109 7.01775391 1.30787109 7.01775391 0 7 C0 4.69 0 2.38 0 0 Z" transform="translate(188,153)"/><path fill="#B09759" d="M0 0 C4.29 0 8.58 0 13 0 C13 2.31 13 4.62 13 7 C9.04 7 5.08 7 1 7 C0.67 4.69 0.34 2.38 0 0 Z" transform="translate(172,153)"/><path fill="#987D45" d="M0 0 C4.56568632 1.86778077 6.61043744 4.75188879 9 9 C9 9.99 9 10.98 9 12 C8.01 12 7.02 12 6 12 C5.54625 10.865625 5.0925 9.73125 4.625 8.5625 C3.42904194 4.95278308 3.42904194 4.95278308 1 4 C-0.47668337 3.9047301 -1.95775457 3.87014041 -3.4375 3.875 C-4.21996094 3.87242188 -5.00242188 3.86984375 -5.80859375 3.8671875 C-8.17895347 3.91617452 -8.17895347 3.91617452 -11 5 C-12.22969878 8.51190809 -12.22969878 8.51190809 -13 12 C-13.66 12 -14.32 12 -15 12 C-14.82473367 7.53070868 -14.41954213 5.48093854 -11.4375 2.0625 C-7.59660109 -0.73507781 -4.64209451 -0.58947232 0 0 Z" transform="translate(190,109)"/><path fill="#704C20" d="M0 0 C7.31754555 3.88508861 11.97432395 11.25941303 14.578125 19.0390625 C15.30296598 22.40823075 15.18393771 25.56649606 15 29 C14.01 29 13.02 29 12 29 C11.91363281 28.23816406 11.82726562 27.47632812 11.73828125 26.69140625 C10.25912802 15.82166552 6.32364157 9.00491056 -1 1 C-0.67 0.67 -0.34 0.34 0 0 Z" transform="translate(208,92)"/><path fill="#775D31" d="M0 0 C8.58 0 17.16 0 26 0 C25.34 2.31 24.68 4.62 24 7 C23.67 7 23.34 7 23 7 C23 5.02 23 3.04 23 1 C17.72 1 12.44 1 7 1 C7 2.98 7 4.96 7 7 C4.69 7 2.38 7 0 7 C0 4.69 0 2.38 0 0 Z" transform="translate(205,143)"/><path fill="#241E11" d="M0 0 C0.99 0 1.98 0 3 0 C3 0.66 3 1.32 3 2 C10.59 2 18.18 2 26 2 C25.67 2.99 25.34 3.98 25 5 C17.41 5 9.82 5 2 5 C1.67 5.99 1.34 6.98 1 8 C0.34 7.67 -0.32 7.34 -1 7 C-1 6.01 -1 5.02 -1 4 C-4.96 4 -8.92 4 -13 4 C-13 3.67 -13 3.34 -13 3 C-8.71 3 -4.42 3 0 3 C0 2.01 0 1.02 0 0 Z" transform="translate(202,148)"/><path fill="#E7D98B" d="M0 0 C4.29 0 8.58 0 13 0 C13 1.98 13 3.96 13 6 C8.71 6 4.42 6 0 6 C0 4.02 0 2.04 0 0 Z" transform="translate(148,144)"/><path fill="#CEB66E" d="M0 0 C3.63 0 7.26 0 11 0 C10.34 2.31 9.68 4.62 9 7 C6.03 7 3.06 7 0 7 C0 4.69 0 2.38 0 0 Z" transform="translate(188,162)"/><path fill="#CEB66E" d="M0 0 C3.63 0 7.26 0 11 0 C11 2.31 11 4.62 11 7 C8.03 7 5.06 7 2 7 C1.34 4.69 0.68 2.38 0 0 Z" transform="translate(174,162)"/><path fill="#A98D50" d="M0 0 C6.43708365 1.81042978 11.92167733 6.88536946 15.5 12.4375 C17.30689484 16.72887524 17.3227869 19.40028666 17 24 C16.34 24 15.68 24 15 24 C14.85304687 23.12988281 14.85304687 23.12988281 14.703125 22.2421875 C12.97949837 13.23772427 9.12420814 8.60079491 1.6875 3.375 C1.130625 2.92125 0.57375 2.4675 0 2 C0 1.34 0 0.68 0 0 Z" transform="translate(194,97)"/><path fill="#9A773D" d="M0 0 C0.99 0 1.98 0 3 0 C4.65 3.96 6.3 7.92 8 12 C8.66 11.67 9.32 11.34 10 11 C9.67 13.31 9.34 15.62 9 18 C7.171875 17.96484375 7.171875 17.96484375 5 17 C3.86733285 14.47534453 3.02271343 12.1940995 2.25 9.5625 C1.91935547 8.52125977 1.91935547 8.52125977 1.58203125 7.45898438 C0 2.38371021 0 2.38371021 0 0 Z" transform="translate(250,268)"/><path fill="#BD9F5A" d="M0 0 C2.97 0 5.94 0 9 0 C9 2.31 9 4.62 9 7 C6.03 7 3.06 7 0 7 C0 4.69 0 2.38 0 0 Z" transform="translate(159,134)"/><path fill="#C4B572" d="M0 0 C5.28 0 10.56 0 16 0 C16 0.33 16 0.66 16 1 C11.05 1 6.1 1 1 1 C1.99 2.65 2.98 4.3 4 6 C8.08600528 6.59587577 9.52648925 6.31567384 13 4 C13.99 4.33 14.98 4.66 16 5 C14.625 7 14.625 7 12 9 C7.90867701 9.63613042 3.7543904 10.08047008 0.12890625 7.84765625 C-1 6 -1 6 0 0 Z" transform="translate(202,277)"/><path fill="#8B642E" d="M0 0 C0.66 0.66 1.32 1.32 2 2 C1.57847656 2.76183594 1.15695313 3.52367188 0.72265625 4.30859375 C-2.67825357 10.71830849 -4.75766351 15.7299052 -5 23 C-5.99 23 -6.98 23 -8 23 C-8.75783446 14.28490377 -5.08560675 6.90189487 0 0 Z" transform="translate(158,98)"/><path fill="#D1C57F" d="M0 0 C0.99 0 1.98 0 3 0 C3 6.27 3 12.54 3 19 C2.01 19 1.02 19 0 19 C0 12.73 0 6.46 0 0 Z" transform="translate(172,267)"/><path fill="#A2793B" d="M0 0 C2.64 0 5.28 0 8 0 C8 2.31 8 4.62 8 7 C5.36 7 2.72 7 0 7 C0 4.69 0 2.38 0 0 Z" transform="translate(206,134)"/><path fill="#C5A963" d="M0 0 C2.64 0 5.28 0 8 0 C8 2.31 8 4.62 8 7 C5.36 7 2.72 7 0 7 C0 4.69 0 2.38 0 0 Z" transform="translate(142,134)"/><path fill="#B9A665" d="M0 0 C-0.33 0.99 -0.66 1.98 -1 3 C-3.00390625 3.921875 -3.00390625 3.921875 -5.5625 4.75 C-10.47247032 6.55337504 -13.68499057 8.97962195 -17.40625 12.609375 C-19 14 -19 14 -21 14 C-18.11660117 7.56780261 -13.09323768 4.23920843 -6.6875 1.625 C-2.37398374 0 -2.37398374 0 0 0 Z" transform="translate(180,85)"/><path fill="#C9B670" d="M0 0 C10.83766816 -0.92017937 10.83766816 -0.92017937 13.6875 1.3359375 C14.75 3 14.75 3 16 6 C9.79011871 5.55643705 5.39459439 4.08467498 0 1 C0 0.67 0 0.34 0 0 Z" transform="translate(163,171)"/><path fill="#EDE191" d="M0 0 C2.97 0 5.94 0 9 0 C9 1.98 9 3.96 9 6 C6.03 6 3.06 6 0 6 C0 4.02 0 2.04 0 0 Z" transform="translate(153,153)"/><path fill="#ECDF90" d="M0 0 C2.97 0 5.94 0 9 0 C9 1.98 9 3.96 9 6 C6.03 6 3.06 6 0 6 C0 4.02 0 2.04 0 0 Z" transform="translate(210,153)"/><path fill="#E6D789" d="M0 0 C2.97 0 5.94 0 9 0 C9 1.98 9 3.96 9 6 C6.03 6 3.06 6 0 6 C0 4.02 0 2.04 0 0 Z" transform="translate(190,144)"/><path fill="#070604" d="M0 0 C3.625 0.1875 3.625 0.1875 6.625 2.1875 C6.625 3.1775 6.625 4.1675 6.625 5.1875 C2.665 5.1875 -1.295 5.1875 -5.375 5.1875 C-4.13556338 0.22975352 -4.13556338 0.22975352 0 0 Z" transform="translate(208.375,269.8125)"/><path fill="#BEAB69" d="M0 0 C1.65322266 0.01740234 1.65322266 0.01740234 3.33984375 0.03515625 C4.99693359 0.04869141 4.99693359 0.04869141 6.6875 0.0625 C7.54214844 0.07410156 8.39679688 0.08570313 9.27734375 0.09765625 C7.88817033 2.87600309 6.31970822 3.09408611 3.46484375 4.22265625 C2.59214844 4.57585937 1.71945313 4.9290625 0.8203125 5.29296875 C-1.72265625 6.09765625 -1.72265625 6.09765625 -5.72265625 6.09765625 C-3.42464819 0.1228353 -3.42464819 0.1228353 0 0 Z" transform="translate(200.72265625,170.90234375)"/><path fill="#D0B870" d="M0 0 C1.4540625 0.0309375 1.4540625 0.0309375 2.9375 0.0625 C2.9375 2.3725 2.9375 4.6825 2.9375 7.0625 C0.2975 7.0625 -2.3425 7.0625 -5.0625 7.0625 C-4.02286585 0.0820993 -4.02286585 0.0820993 0 0 Z" transform="translate(205.0625,161.9375)"/><path fill="#A0935B" d="M0 0 C7.20759389 -0.61081304 7.20759389 -0.61081304 11 2.3125 C13 5 13 5 13 8 C9.99686252 9.50156874 7.20932478 9.09281204 3.875 9.0625 C2.59367188 9.05347656 1.31234375 9.04445313 -0.0078125 9.03515625 C-1.48894531 9.01775391 -1.48894531 9.01775391 -3 9 C-2.67 8.34 -2.34 7.68 -2 7 C1.96 7.33 5.92 7.66 10 8 C9.67 7.01 9.34 6.02 9 5 C6.66989091 4.32215008 4.33640176 3.65583207 2 3 C1.34 2.01 0.68 1.02 0 0 Z" transform="translate(205,267)"/><path fill="#7C6032" d="M0 0 C4.95 0 9.9 0 15 0 C14.67 2.31 14.34 4.62 14 7 C13.01 7 12.02 7 11 7 C11 5.02 11 3.04 11 1 C8.03 1 5.06 1 2 1 C2 2.98 2 4.96 2 7 C1.34 7 0.68 7 0 7 C0 4.69 0 2.38 0 0 Z" transform="translate(188,143)"/><path fill="#B79653" d="M0 0 C2.31 0 4.62 0 7 0 C7 2.31 7 4.62 7 7 C4.69 7 2.38 7 0 7 C0 4.69 0 2.38 0 0 Z" transform="translate(225,134)"/><path fill="#A68547" d="M0 0 C2.64 0 5.28 0 8 0 C6.8125 2.9375 6.8125 2.9375 5 6 C2.3125 6.875 2.3125 6.875 0 7 C0 4.69 0 2.38 0 0 Z" transform="translate(219,153)"/><path fill="#CEB66E" d="M0 0 C2.31 0 4.62 0 7 0 C7 1.98 7 3.96 7 6 C4.69 6 2.38 6 0 6 C0 4.02 0 2.04 0 0 Z" transform="translate(221,144)"/><path fill="#BFA05C" d="M0 0 C1.98 0 3.96 0 6 0 C6 2.31 6 4.62 6 7 C4.02 7 2.04 7 0 7 C0 4.69 0 2.38 0 0 Z" transform="translate(197,134)"/><path fill="#D6C177" d="M0 0 C2.97 0 5.94 0 9 0 C9 2.31 9 4.62 9 7 C4.58110387 5.64978174 2.65654657 3.73884332 0 0 Z" transform="translate(152,162)"/><path fill="#7E5524" d="M0 0 C0.99 0 1.98 0 3 0 C2.54857225 1.77260631 2.08859477 3.5430368 1.625 5.3125 C1.36976563 6.29863281 1.11453125 7.28476562 0.8515625 8.30078125 C0 11 0 11 -2 14 C-2.66 14 -3.32 14 -4 14 C-3.52372025 12.04096255 -3.04388577 10.08278903 -2.5625 8.125 C-2.29566406 7.03445313 -2.02882813 5.94390625 -1.75390625 4.8203125 C-1 2 -1 2 0 0 Z" transform="translate(274,267)"/><path fill="#DECC80" d="M0 0 C1.98 0 3.96 0 6 0 C6 1.98 6 3.96 6 6 C4.02 6 2.04 6 0 6 C0 4.02 0 2.04 0 0 Z" transform="translate(174,153)"/><path fill="#CEB66E" d="M0 0 C0.99 0 1.98 0 3 0 C3 3.96 3 7.92 3 12 C2.01 12 1.02 12 0 12 C0 8.04 0 4.08 0 0 Z" transform="translate(185,121)"/><path fill="#BFAB68" d="M0 0 C0.99 0 1.98 0 3 0 C3.67119549 1.4562545 4.33681807 2.91507867 5 4.375 C5.556875 5.59316406 5.556875 5.59316406 6.125 6.8359375 C7 9 7 9 7 11 C6.01 11.33 5.02 11.66 4 12 C3.3291288 10.3767313 2.66342971 8.75132422 2 7.125 C1.62875 6.22007812 1.2575 5.31515625 0.875 4.3828125 C0 2 0 2 0 0 Z" transform="translate(150,268)"/><path fill="#B9A160" d="M0 0 C2.31 0 4.62 0 7 0 C5.71480435 2.86697492 4.42870746 4.97607712 2 7 C1.34 7 0.68 7 0 7 C0 4.69 0 2.38 0 0 Z" transform="translate(188,171)"/><path fill="#89612C" d="M0 0 C0.66 0.99 1.32 1.98 2 3 C1.01 4.485 1.01 4.485 0 6 C-0.66613335 8.27538323 -0.66613335 8.27538323 -1.125 10.6875 C-1.29257813 11.49574219 -1.46015625 12.30398437 -1.6328125 13.13671875 C-1.75398437 13.75160156 -1.87515625 14.36648437 -2 15 C-2.66 15 -3.32 15 -4 15 C-3.40546697 4.44191344 -3.40546697 4.44191344 0 0 Z" transform="translate(166,106)"/><path fill="#96763F" d="M0 0 C4.94151304 2.40016348 7.04331244 5.52273027 10 10 C9.01 10.33 8.02 10.66 7 11 C5.82439821 9.73742767 4.65977135 8.46462916 3.5 7.1875 C2.8503125 6.47980469 2.200625 5.77210937 1.53125 5.04296875 C0 3 0 3 0 0 Z" transform="translate(208,92)"/><path fill="#D1C882" d="M0 0 C0.99 0 1.98 0 3 0 C2.54738642 1.43931117 2.08767021 2.87638999 1.625 4.3125 C1.36976563 5.11300781 1.11453125 5.91351563 0.8515625 6.73828125 C0 9 0 9 -2 12 C-2.66 11.67 -3.32 11.34 -4 11 C-3.52269162 9.5410574 -3.04308958 8.08286504 -2.5625 6.625 C-2.29566406 5.81289063 -2.02882812 5.00078125 -1.75390625 4.1640625 C-1 2 -1 2 0 0 Z" transform="translate(194,267)"/><path fill="#B8A262" d="M0 0 C2.31 0 4.62 0 7 0 C7 2.31 7 4.62 7 7 C3.17053157 5.54744301 1.87949705 3.57104439 0 0 Z" transform="translate(178,171)"/><path fill="#CFC37D" d="M0 0 C2.49609375 -0.3984375 2.49609375 -0.3984375 5.4375 -0.375 C6.40558594 -0.38273437 7.37367188 -0.39046875 8.37109375 -0.3984375 C11 0 11 0 14 3 C8.72 3 3.44 3 -2 3 C-1.34 2.01 -0.68 1.02 0 0 Z" transform="translate(181,96)"/><path fill="#CCC480" d="M0 0 C1.890625 0.24609375 1.890625 0.24609375 4 1 C5.046875 2.84765625 5.046875 2.84765625 5.75 5.0625 C5.99234375 5.79597656 6.2346875 6.52945312 6.484375 7.28515625 C6.65453125 7.85105469 6.8246875 8.41695313 7 9 C6.01 9.66 5.02 10.32 4 11 C3.32880451 9.5437455 2.66318193 8.08492133 2 6.625 C1.62875 5.81289063 1.2575 5.00078125 0.875 4.1640625 C0 2 0 2 0 0 Z" transform="translate(178,267)"/><path fill="#B89654" d="M0 0 C1.65 0 3.3 0 5 0 C5 1.98 5 3.96 5 6 C3.35 6 1.7 6 0 6 C0 4.02 0 2.04 0 0 Z" transform="translate(207,144)"/><path fill="#89612C" d="M0 0 C3.91531663 5.10693473 4.10265877 7.63515636 4 14 C3.34 14 2.68 14 2 14 C1.86722656 13.38511719 1.73445312 12.77023438 1.59765625 12.13671875 C1.42105469 11.32847656 1.24445313 10.52023438 1.0625 9.6875 C0.88847656 8.88699219 0.71445313 8.08648437 0.53515625 7.26171875 C0.00113841 4.854599 0.00113841 4.854599 -1 2 C-0.67 1.34 -0.34 0.68 0 0 Z" transform="translate(207,107)"/><path fill="#97763D" d="M0 0 C3.21602818 2.36970497 5.64124592 4.17078395 7 8 C7 8.99 7 9.98 7 11 C6.01 11 5.02 11 4 11 C3.54625 9.88625 3.0925 8.7725 2.625 7.625 C1.27534014 4.03800992 1.27534014 4.03800992 -1 2 C-0.67 1.34 -0.34 0.68 0 0 Z" transform="translate(192,110)"/><path fill="#D8C379" d="M0 0 C1.32 0 2.64 0 4 0 C4 2.31 4 4.62 4 7 C2.68 7 1.36 7 0 7 C0 4.69 0 2.38 0 0 Z" transform="translate(221,134)"/><path fill="#B18D4C" d="M0 0 C1.32 0 2.64 0 4 0 C4 2.31 4 4.62 4 7 C2.68 7 1.36 7 0 7 C0 4.69 0 2.38 0 0 Z" transform="translate(181,134)"/><path fill="#C3A761" d="M0 0 C1.32 0 2.64 0 4 0 C4 2.31 4 4.62 4 7 C2.68 7 1.36 7 0 7 C0 4.69 0 2.38 0 0 Z" transform="translate(210,134)"/><path fill="#AD8747" d="M0 0 C1.32 0 2.64 0 4 0 C4 2.31 4 4.62 4 7 C2.68 7 1.36 7 0 7 C0 4.69 0 2.38 0 0 Z" transform="translate(188,134)"/><path fill="#AC8747" d="M0 0 C1.32 0 2.64 0 4 0 C4 2.31 4 4.62 4 7 C2.68 7 1.36 7 0 7 C0 4.69 0 2.38 0 0 Z" transform="translate(170,134)"/><path fill="#A47C3D" d="M0 0 C1.32 0 2.64 0 4 0 C4 2.31 4 4.62 4 7 C2.68 7 1.36 7 0 7 C0 4.69 0 2.38 0 0 Z" transform="translate(142,134)"/><path fill="#AB8F51" d="M0 0 C0.99 0 1.98 0 3 0 C2.01 2.97 1.02 5.94 0 9 C-0.99 9 -1.98 9 -3 9 C-2.01 6.03 -1.02 3.06 0 0 Z" transform="translate(135,268)"/><path fill="#C6AD67" d="M0 0 C1.65 0 3.3 0 5 0 C5 2.31 5 4.62 5 7 C4.01 7 3.02 7 2 7 C1.34 4.69 0.68 2.38 0 0 Z" transform="translate(174,162)"/><path fill="#A58244" d="M0 0 C0.99 0 1.98 0 3 0 C3.66 2.31 4.32 4.62 5 7 C3.35 7 1.7 7 0 7 C0 4.69 0 2.38 0 0 Z" transform="translate(169,162)"/><path fill="#805C2A" d="M0 0 C0.99 0 1.98 0 3 0 C5.09350689 3.4019487 5.17942163 6.05272412 5 10 C4.34 10 3.68 10 3 10 C2.01 6.7 1.02 3.4 0 0 Z" transform="translate(216,103)"/><path fill="#D5C77E" d="M0 0 C0 0.33 0 0.66 0 1 C-1.6396875 1.4021875 -1.6396875 1.4021875 -3.3125 1.8125 C-6.73166327 2.91358648 -7.77591981 3.42474926 -10 6 C-10.66 6 -11.32 6 -12 6 C-9.51338724 -0.92699268 -6.80769872 -0.10980159 0 0 Z" transform="translate(212,268)"/><path fill="#B39454" d="M0 0 C1.98 0 3.96 0 6 0 C4.02 2.31 2.04 4.62 0 7 C-1.04449911 3.86650268 -0.93423645 3.01031744 0 0 Z" transform="translate(215,162)"/><path fill="#EBDE8F" d="M0 0 C1.32 0 2.64 0 4 0 C4 1.98 4 3.96 4 6 C2.68 6 1.36 6 0 6 C0 4.02 0 2.04 0 0 Z" transform="translate(193,153)"/><path fill="#E0CF82" d="M0 0 C1.32 0 2.64 0 4 0 C4 1.98 4 3.96 4 6 C2.68 6 1.36 6 0 6 C0 4.02 0 2.04 0 0 Z" transform="translate(210,153)"/><path fill="#DECC80" d="M0 0 C1.32 0 2.64 0 4 0 C4 1.98 4 3.96 4 6 C2.68 6 1.36 6 0 6 C0 4.02 0 2.04 0 0 Z" transform="translate(153,153)"/><path fill="#CCB36B" d="M0 0 C1.32 0 2.64 0 4 0 C4 1.98 4 3.96 4 6 C2.68 6 1.36 6 0 6 C0 4.02 0 2.04 0 0 Z" transform="translate(148,144)"/><path fill="#BEA05B" d="M0 0 C1.32 0 2.64 0 4 0 C4 1.98 4 3.96 4 6 C2.68 6 1.36 6 0 6 C0 4.02 0 2.04 0 0 Z" transform="translate(161,144)"/><path fill="#CAB069" d="M0 0 C1.32 0 2.64 0 4 0 C4 1.98 4 3.96 4 6 C2.68 6 1.36 6 0 6 C0 4.02 0 2.04 0 0 Z" transform="translate(190,144)"/><path fill="#A58144" d="M0 0 C0.66 0 1.32 0 2 0 C2 2.31 2 4.62 2 7 C0.68 7 -0.64 7 -2 7 C-1.125 1.125 -1.125 1.125 0 0 Z" transform="translate(202,162)"/><path fill="#9A7338" d="M0 0 C1.65 0 3.3 0 5 0 C5 2.31 5 4.62 5 7 C4.01 7 3.02 7 2 7 C2 5.02 2 3.04 2 1 C1.34 0.67 0.68 0.34 0 0 Z" transform="translate(163,143)"/><path fill="#A5864A" d="M0 0 C0.99 0.33 1.98 0.66 3 1 C0.19195732 3.96404505 -2.18315774 6.44499019 -6 8 C-4.55746343 4.63408134 -2.66735273 2.48952921 0 0 Z" transform="translate(165,91)"/><path fill="#A8955B" d="M0 0 C3.96 0 7.92 0 12 0 C12 0.33 12 0.66 12 1 C10.35 1 8.7 1 7 1 C6.67 1.99 6.34 2.98 6 4 C4.02 3.01 2.04 2.02 0 1 C0 0.67 0 0.34 0 0 Z" transform="translate(163,171)"/><path fill="#A27D41" d="M0 0 C0.99 0 1.98 0 3 0 C3.33 2.31 3.66 4.62 4 7 C2.68 7 1.36 7 0 7 C0 4.69 0 2.38 0 0 Z" transform="translate(188,153)"/><path fill="#C0A560" d="M0 0 C1.32 0 2.64 0 4 0 C3.34 2.31 2.68 4.62 2 7 C1.34 7 0.68 7 0 7 C0 4.69 0 2.38 0 0 Z" transform="translate(195,162)"/><path fill="#A78446" d="M0 0 C0.99 0 1.98 0 3 0 C3 2.31 3 4.62 3 7 C2.01 7 1.02 7 0 7 C0 4.69 0 2.38 0 0 Z" transform="translate(182,153)"/><path fill="#8A632D" d="M0 0 C0.99 0 1.98 0 3 0 C3 2.31 3 4.62 3 7 C2.01 7 1.02 7 0 7 C0 4.69 0 2.38 0 0 Z" transform="translate(229,134)"/><path fill="#F3E998" d="M0 0 C0.99 0 1.98 0 3 0 C3 2.31 3 4.62 3 7 C2.01 7 1.02 7 0 7 C0 4.69 0 2.38 0 0 Z" transform="translate(218,134)"/><path fill="#845E2B" d="M0 0 C0.99 0 1.98 0 3 0 C3 2.31 3 4.62 3 7 C2.01 7 1.02 7 0 7 C0 4.69 0 2.38 0 0 Z" transform="translate(165,134)"/><path fill="#D3C37B" d="M0 0 C0.99 0 1.98 0 3 0 C2.1875 2.9375 2.1875 2.9375 1 6 C0.01 6.33 -0.98 6.66 -2 7 C-1.125 2.25 -1.125 2.25 0 0 Z" transform="translate(165,268)"/><path fill="#987238" d="M0 0 C0.66 0 1.32 0 2 0 C2.33 2.31 2.66 4.62 3 7 C1.68 6.67 0.36 6.34 -1 6 C-0.67 4.02 -0.34 2.04 0 0 Z" transform="translate(167,153)"/><path fill="#956F36" d="M0 0 C0.66 0 1.32 0 2 0 C2.33 2.31 2.66 4.62 3 7 C1.68 7 0.36 7 -1 7 C-0.67 4.69 -0.34 2.38 0 0 Z" transform="translate(204,153)"/><path fill="#DDCB7F" d="M0 0 C0.99 0 1.98 0 3 0 C2.67 2.31 2.34 4.62 2 7 C1.34 7 0.68 7 0 7 C0 4.69 0 2.38 0 0 Z" transform="translate(212,162)"/><path fill="#A08146" d="M0 0 C1.65 0 3.3 0 5 0 C5.33 1.98 5.66 3.96 6 6 C3.97945196 4.35830472 1.97956942 2.69088222 0 1 C0 0.67 0 0.34 0 0 Z" transform="translate(152,162)"/><path fill="#CBB16A" d="M0 0 C0.99 0 1.98 0 3 0 C3 1.98 3 3.96 3 6 C2.01 6 1.02 6 0 6 C0 4.02 0 2.04 0 0 Z" transform="translate(219,153)"/><path fill="#CDB56D" d="M0 0 C0.99 0 1.98 0 3 0 C3 1.98 3 3.96 3 6 C2.01 6 1.02 6 0 6 C0 4.02 0 2.04 0 0 Z" transform="translate(162,153)"/><path fill="#B28E4D" d="M0 0 C0.99 0 1.98 0 3 0 C3 1.98 3 3.96 3 6 C2.01 6 1.02 6 0 6 C0 4.02 0 2.04 0 0 Z" transform="translate(225,144)"/><path fill="#B28F4E" d="M0 0 C0.99 0 1.98 0 3 0 C3 1.98 3 3.96 3 6 C2.01 6 1.02 6 0 6 C0 4.02 0 2.04 0 0 Z" transform="translate(199,144)"/><path fill="#AB8545" d="M0 0 C0.99 0 1.98 0 3 0 C3 1.98 3 3.96 3 6 C2.01 6 1.02 6 0 6 C0 4.02 0 2.04 0 0 Z" transform="translate(182,144)"/><path fill="#946D35" d="M0 0 C1.32 0.33 2.64 0.66 4 1 C3.67 2.98 3.34 4.96 3 7 C1.5 5.75 1.5 5.75 0 4 C0 2.68 0 1.36 0 0 Z" transform="translate(143,143)"/><path fill="#6A471D" d="M0 0 C0.33 0.66 0.66 1.32 1 2 C1.66 2 2.32 2 3 2 C3 3.65 3 5.3 3 7 C2.01 7 1.02 7 0 7 C0 4.69 0 2.38 0 0 Z" transform="translate(150,114)"/><path fill="#E1D386" d="M0 0 C5.75 -0.125 5.75 -0.125 8 1 C8 1.66 8 2.32 8 3 C5.36 2.67 2.72 2.34 0 2 C0 1.34 0 0.68 0 0 Z" transform="translate(184,109)"/></svg>